<?xml version="1.0" standalone="no"?>
<!DOCTYPE svg PUBLIC "-//W3C//DTD SVG 20010904//EN"
 "http://www.w3.org/TR/2001/REC-SVG-20010904/DTD/svg10.dtd">
<svg version="1.0" xmlns="http://www.w3.org/2000/svg"
 width="816.000000pt" height="816.000000pt" viewBox="0 0 816.000000 816.000000"
 preserveAspectRatio="xMidYMid meet">
<metadata>
Created by potrace 1.14, written by Peter Selinger 2001-2017
</metadata>
<g transform="translate(0.000000,816.000000) scale(0.100000,-0.100000)"
fill="#000000" stroke="none">
<path d="M3130 8151 c0 -3 -21 -19 -46 -36 -87 -57 -108 -142 -59 -235 16 -30
25 -120 13 -120 -5 0 -6 -6 -1 -12 4 -7 8 -31 10 -53 1 -22 2 -40 3 -40 1 0 3
-10 4 -22 2 -13 0 -23 -3 -23 -3 0 -4 -45 -1 -101 3 -56 3 -102 0 -104 -3 -2
-3 -109 0 -239 3 -130 3 -236 0 -236 -3 0 -3 -27 0 -60 3 -33 3 -60 0 -60 -3
0 -5 -34 -5 -75 0 -41 -3 -75 -7 -75 -5 0 -7 -6 -5 -12 1 -7 -5 -13 -13 -13
-8 0 -18 -4 -22 -10 -4 -5 -11 -11 -15 -11 -4 -1 -19 -5 -33 -10 -14 -4 -27
-8 -30 -8 -3 0 -14 -8 -24 -18 -10 -9 -23 -15 -28 -12 -4 3 -8 1 -8 -4 0 -4
-16 -16 -35 -25 -19 -9 -35 -22 -35 -27 0 -6 -4 -9 -8 -6 -4 2 -36 -22 -71
-55 -35 -32 -60 -59 -56 -59 5 0 -1 -8 -11 -17 -10 -10 -19 -22 -20 -28 0 -5
-6 -23 -13 -40 -19 -43 -24 -87 -25 -197 -1 -54 -5 -98 -9 -98 -5 0 -5 -5 -1
-11 10 -17 12 -109 2 -109 -5 0 -6 -5 -2 -11 10 -17 12 -109 2 -109 -5 0 -6
-5 -2 -11 10 -17 12 -109 2 -109 -5 0 -6 -5 -2 -11 10 -17 11 -149 1 -149 -4
0 -5 -5 -1 -11 10 -17 12 -109 2 -109 -5 0 -6 -5 -2 -11 10 -17 12 -109 2
-109 -5 0 -6 -5 -2 -11 10 -17 12 -109 2 -109 -5 0 -6 -5 -2 -11 10 -17 12
-109 2 -109 -5 0 -6 -5 -2 -11 10 -17 12 -109 2 -109 -5 0 -6 -5 -2 -11 10
-17 12 -109 2 -109 -5 0 -6 -5 -2 -11 10 -17 12 -109 2 -109 -5 0 -6 -5 -2
-11 10 -17 12 -109 2 -109 -5 0 -6 -5 -2 -11 10 -17 12 -109 2 -109 -5 0 -5
-8 1 -17 5 -10 5 -26 1 -39 -5 -13 -5 -24 0 -26 5 -2 -2 -25 -16 -52 -14 -27
-23 -54 -21 -60 2 -6 0 -19 -5 -28 -6 -12 -5 -18 3 -18 7 0 9 -3 6 -7 -4 -3 2
-20 13 -38 11 -18 17 -35 13 -38 -3 -4 -1 -7 5 -7 7 0 8 -10 2 -30 -5 -16 -6
-30 -2 -30 4 0 7 -20 7 -45 0 -25 -3 -45 -8 -45 -4 0 -5 -5 -1 -11 10 -17 12
-109 2 -109 -5 0 -6 -5 -2 -11 10 -17 12 -109 2 -109 -5 0 -6 -5 -2 -11 10
-17 12 -109 2 -109 -5 0 -6 -5 -2 -11 10 -17 12 -109 2 -109 -5 0 -6 -5 -2
-11 10 -17 12 -109 2 -109 -5 0 -6 -5 -2 -11 10 -17 12 -109 2 -109 -5 0 -6
-5 -2 -11 10 -17 12 -109 2 -109 -5 0 -4 -8 1 -18 7 -13 6 -23 -1 -30 -8 -8
-8 -12 -2 -12 6 0 11 -7 11 -15 0 -8 -5 -15 -11 -15 -6 0 -5 -4 2 -9 17 -11
17 -21 0 -32 -7 -5 -8 -9 -2 -9 6 0 11 -7 11 -15 0 -8 -5 -15 -11 -15 -6 0 -5
-4 2 -9 17 -11 17 -21 0 -32 -7 -5 -8 -9 -2 -9 6 0 11 -7 11 -15 0 -8 -5 -15
-11 -15 -6 0 -5 -4 2 -9 17 -11 17 -21 0 -32 -7 -5 -8 -9 -2 -9 6 0 11 -7 11
-15 0 -8 -5 -15 -11 -15 -6 0 -5 -4 2 -9 17 -11 17 -21 0 -32 -7 -5 -8 -9 -2
-9 6 0 11 -7 11 -15 0 -8 -5 -15 -11 -15 -6 0 -5 -4 2 -9 17 -11 17 -21 0 -32
-7 -5 -8 -9 -2 -9 6 0 11 -7 11 -15 0 -8 -5 -15 -11 -15 -6 0 -5 -4 2 -9 17
-11 17 -21 0 -32 -7 -5 -8 -9 -2 -9 6 0 11 -7 11 -15 0 -8 -5 -15 -11 -15 -6
0 -5 -4 2 -9 17 -11 17 -21 0 -32 -7 -5 -8 -9 -2 -9 6 0 11 -7 11 -15 0 -8 -5
-15 -11 -15 -6 0 -5 -4 2 -9 17 -11 17 -21 0 -32 -7 -5 -8 -9 -2 -9 6 0 11 -7
11 -15 0 -8 -5 -15 -11 -15 -7 0 -7 -3 -1 -8 6 -4 10 -43 11 -87 1 -96 6 -147
15 -160 4 -5 9 -19 11 -30 1 -11 7 -23 11 -26 4 -3 9 -15 10 -27 0 -11 4 -20
7 -19 13 4 91 -81 80 -88 -5 -3 -8 -11 -5 -16 4 -5 1 -9 -5 -9 -7 0 -10 -7 -6
-15 3 -8 1 -15 -4 -15 -6 0 -10 -10 -10 -23 0 -13 -5 -28 -12 -35 -9 -9 -9
-12 1 -12 9 0 10 -4 4 -13 -5 -6 -9 -34 -8 -62 0 -27 -3 -58 -8 -67 -5 -12 -4
-18 5 -18 9 0 9 -3 -2 -10 -8 -5 -10 -10 -5 -10 6 0 10 -18 10 -40 0 -22 -4
-40 -10 -40 -5 0 -3 -5 5 -10 8 -5 10 -10 4 -10 -14 0 -13 -32 1 -42 6 -5 5
-8 -2 -8 -7 0 -13 -8 -13 -17 0 -15 2 -16 10 -3 8 12 9 10 7 -7 -2 -12 -7 -26
-12 -30 -4 -5 -5 -3 -2 4 9 14 -31 5 -40 -10 -3 -6 -1 -7 5 -3 6 4 23 4 37 0
19 -5 23 -9 14 -15 -8 -5 -17 -3 -21 4 -6 9 -8 9 -8 -1 0 -7 -3 -11 -7 -9 -5
3 -14 -1 -20 -8 -10 -11 -9 -13 7 -12 11 1 20 6 20 11 0 10 14 -1 16 -12 0 -4
4 -15 9 -25 6 -15 10 -16 17 -5 7 9 8 8 4 -6 -5 -14 -2 -17 9 -12 9 3 14 2 10
-3 -3 -5 -2 -11 2 -14 5 -2 3 -3 -3 -1 -6 1 -11 -11 -11 -26 0 -26 3 -28 20
-18 14 7 16 12 8 18 -10 5 -9 9 2 13 15 6 17 -9 4 -29 -4 -7 1 -18 10 -25 14
-12 16 -12 11 2 -3 9 -2 22 4 30 8 12 9 12 5 -1 -2 -8 0 -23 5 -32 5 -12 4
-26 -3 -40 -12 -23 -12 -23 14 1 23 20 24 25 11 38 -14 14 -18 23 -10 23 3 0
12 -7 21 -16 15 -15 15 -18 -1 -35 -22 -24 -7 -25 20 -2 20 17 20 17 7 1 -12
-16 -11 -18 3 -18 9 0 16 5 16 10 0 6 5 10 11 10 8 0 7 -5 -1 -16 -11 -13 -10
-16 9 -21 13 -3 20 -11 17 -19 -3 -7 -1 -16 4 -19 10 -6 14 7 11 35 -2 12 0
12 7 2 5 -8 12 -13 16 -13 19 3 26 0 24 -10 -2 -6 3 -14 11 -17 8 -2 11 0 7 6
-7 12 10 25 37 27 24 2 32 -13 15 -32 -11 -14 -10 -15 10 -9 14 5 22 3 22 -4
0 -6 5 -8 10 -5 6 4 7 12 3 18 -3 7 3 4 15 -7 18 -15 24 -16 37 -6 10 8 15 9
15 1 0 -6 -4 -11 -10 -11 -5 0 -10 -5 -10 -12 0 -6 3 -8 7 -5 3 4 17 0 30 -8
22 -15 23 -14 19 7 -3 13 -5 25 -5 28 -1 3 -6 -2 -11 -10 -5 -8 -10 -10 -10
-4 0 20 13 24 31 8 10 -9 15 -22 12 -30 -3 -10 2 -12 19 -8 12 3 29 6 36 6 6
1 12 7 12 15 0 7 5 13 11 13 7 0 5 -10 -6 -26 -9 -14 -14 -28 -11 -31 2 -3 11
4 18 16 7 12 16 21 21 21 4 0 6 -4 3 -9 -4 -5 -1 -11 5 -13 5 -2 7 -11 4 -21
-4 -9 -12 -14 -17 -11 -6 4 -5 -3 1 -15 7 -11 8 -21 2 -21 -5 0 -12 7 -15 16
-3 8 -11 12 -17 8 -7 -4 -9 -3 -5 4 4 7 -1 9 -15 7 -17 -4 -20 -2 -11 7 15 15
15 28 1 28 -5 0 -8 -4 -4 -9 3 -5 0 -13 -6 -17 -7 -4 -9 -3 -6 3 7 11 -38 11
-49 0 -4 -4 -12 -7 -18 -7 -6 0 -5 4 3 9 9 6 10 11 2 15 -6 4 -11 3 -11 -3 0
-5 -9 -9 -19 -8 -11 0 -17 6 -13 12 3 5 -1 4 -10 -2 -8 -7 -19 -9 -23 -5 -5 4
-5 1 -1 -5 8 -15 -3 -17 -24 -3 -12 7 -8 11 18 16 17 4 32 11 32 16 0 5 -9 6
-20 3 -15 -5 -20 -2 -20 12 0 15 -2 16 -10 3 -6 -9 -5 -17 3 -22 7 -4 3 -6
-10 -5 -12 0 -19 5 -16 11 4 5 1 6 -7 1 -8 -5 -19 1 -32 16 -10 13 -16 17 -13
8 3 -9 -1 -21 -9 -28 -12 -10 -15 -9 -13 8 0 11 5 17 9 15 4 -3 5 2 2 9 -3 8
-12 14 -19 13 -17 -3 -32 -16 -18 -16 10 0 14 -29 4 -31 -44 -6 -61 -3 -56 9
3 7 5 16 5 19 0 3 7 0 15 -7 17 -14 31 -8 21 9 -4 5 -15 8 -26 6 -13 -3 -18 0
-14 7 5 7 2 9 -9 5 -9 -3 -19 -1 -23 5 -4 6 -3 8 3 5 6 -4 19 0 29 8 17 14 17
14 1 9 -11 -4 -17 -2 -15 6 2 7 -4 15 -12 17 -12 4 -12 3 -1 -5 8 -6 9 -12 3
-16 -6 -3 -13 3 -17 14 -4 11 -11 18 -16 14 -5 -3 -21 -8 -35 -10 -21 -4 -25
-2 -20 11 3 9 2 14 -3 11 -5 -4 -7 4 -3 16 4 15 2 19 -7 13 -7 -4 -11 -15 -8
-25 3 -13 0 -17 -9 -13 -15 5 -14 23 1 36 6 5 2 6 -8 3 -12 -4 -16 -2 -11 6 5
7 3 8 -6 3 -9 -6 -11 -4 -5 5 5 9 4 11 -3 6 -8 -5 -10 -1 -5 10 5 14 3 16 -12
10 -11 -4 -16 -4 -12 0 4 4 1 14 -6 22 -8 11 -8 14 0 9 13 -8 12 10 -1 32 -6
10 -5 12 2 7 7 -4 12 -3 12 2 0 13 -29 24 -41 16 -6 -3 -17 0 -26 8 -14 11
-16 11 -8 -1 6 -11 4 -13 -9 -8 -11 4 -15 3 -11 -4 4 -6 13 -8 21 -5 7 3 16 1
19 -4 4 -6 1 -10 -6 -10 -8 0 -8 -4 1 -15 10 -12 9 -16 -4 -21 -9 -3 -16 -11
-16 -16 0 -7 5 -6 13 1 23 19 28 -1 5 -21 -12 -10 -19 -20 -16 -23 2 -3 15 5
27 16 12 12 25 18 29 14 4 -4 -2 -14 -13 -24 -27 -23 -29 -38 -5 -51 14 -7 20
-7 20 0 0 5 -7 10 -15 10 -9 0 -12 6 -8 17 6 14 8 14 23 -5 12 -15 20 -18 28
-10 14 14 13 -31 -1 -49 -5 -7 -5 -18 0 -26 6 -11 11 -10 26 5 9 10 13 18 9
18 -4 0 -13 -5 -20 -12 -9 -9 -12 -9 -12 0 0 7 7 15 15 18 12 5 13 10 4 20 -6
8 -8 14 -3 14 13 0 41 -20 29 -20 -5 0 -3 -6 6 -13 8 -7 18 -21 22 -31 4 -10
10 -16 13 -13 3 3 1 15 -6 26 -7 13 -7 21 -1 21 17 0 31 -35 21 -50 -8 -13
-13 -12 -39 3 -23 13 -31 15 -37 5 -4 -7 -4 -10 1 -6 4 4 21 0 37 -10 28 -16
29 -16 52 12 13 18 25 25 29 19 4 -6 0 -13 -8 -17 -9 -3 -12 -12 -8 -22 4 -12
3 -15 -5 -10 -7 4 -12 2 -12 -4 0 -7 6 -10 13 -7 6 2 11 12 11 21 -1 9 3 15
10 13 6 -3 10 -10 8 -16 -1 -7 2 -10 8 -6 5 3 11 0 11 -7 1 -7 2 -20 3 -28 0
-8 7 -14 14 -12 10 2 12 -4 7 -20 -5 -20 -4 -21 5 -5 12 19 4 41 -12 31 -6 -4
-9 -1 -6 7 3 8 13 16 23 17 10 3 15 0 11 -7 -4 -6 -2 -11 3 -11 6 0 11 5 11
10 0 6 7 10 15 10 21 0 19 -13 -6 -28 -16 -10 -18 -17 -10 -25 8 -8 14 -8 24
2 10 10 8 11 -8 6 -19 -6 -19 -6 -2 8 10 9 24 23 31 32 11 16 13 16 27 -1 12
-16 12 -17 -4 -11 -15 5 -14 2 5 -23 20 -27 23 -29 39 -14 16 14 18 14 29 -6
6 -12 14 -19 17 -16 3 3 0 12 -7 21 -15 18 1 20 18 3 9 -9 12 -9 12 1 0 7 4 9
10 6 6 -3 7 1 4 10 -5 11 -2 14 10 9 9 -3 13 -10 10 -15 -3 -5 3 -6 13 -2 15
6 16 4 5 -9 -10 -13 -10 -17 3 -22 9 -3 25 -1 35 4 30 16 35 12 12 -11 -25
-23 -20 -43 10 -36 14 4 18 2 14 -9 -3 -8 -1 -14 5 -14 6 0 9 8 7 18 -2 12
-11 16 -28 14 l-25 -4 23 22 c12 12 20 25 17 30 -3 5 -1 11 5 15 5 3 10 1 10
-5 0 -7 7 -10 18 -6 11 4 8 -1 -7 -12 -17 -14 -20 -21 -12 -27 7 -4 15 -4 18
-1 4 3 0 6 -8 6 -11 0 -11 2 1 10 22 14 30 12 24 -5 -4 -8 -1 -15 7 -15 7 0 9
3 6 7 -8 8 23 32 42 33 11 0 9 -4 -5 -15 -10 -8 -14 -15 -9 -15 6 0 -1 -7 -15
-15 -18 -10 -20 -14 -8 -15 9 0 26 12 38 27 21 27 55 41 47 20 -3 -7 -10 -11
-16 -9 -7 1 -10 -2 -6 -8 3 -5 1 -10 -4 -10 -6 0 -11 -5 -11 -11 0 -8 5 -8 15
1 11 9 18 10 29 1 11 -9 15 -8 20 5 3 9 4 20 0 25 -3 5 -1 9 5 9 14 0 41 -42
34 -53 -3 -6 -1 -7 6 -3 6 4 10 15 9 23 -2 9 2 18 7 20 13 4 17 -35 4 -42 -5
-4 -6 -11 -3 -17 4 -6 -1 -8 -14 -4 -24 8 -35 -4 -20 -24 8 -12 9 -12 4 2 -4
14 0 17 17 15 13 -1 22 4 22 12 0 8 6 16 13 19 8 2 10 -2 5 -15 -3 -10 -3 -15
2 -11 4 4 9 18 10 30 4 38 5 39 14 34 5 -3 7 -20 5 -37 l-4 -32 21 27 c15 18
25 24 32 17 12 -12 2 -41 -14 -41 -8 0 -7 6 2 17 13 16 12 17 -3 4 -21 -16
-15 -30 12 -28 10 1 17 4 15 8 -3 3 1 14 8 23 12 16 15 16 42 -5 30 -23 30
-23 11 -1 -11 12 -17 25 -14 27 3 3 17 -8 31 -24 13 -16 28 -27 32 -23 5 4 5
-2 1 -13 -6 -16 -5 -18 5 -7 11 10 6 18 -21 42 -42 35 -33 39 15 7 19 -13 32
-27 27 -32 -4 -4 3 -3 15 4 12 6 25 16 29 22 4 8 9 7 16 -2 6 -10 7 -6 2 11
-3 14 -3 22 1 18 5 -4 14 -3 22 3 9 8 13 8 13 1 0 -6 -4 -13 -9 -17 -14 -8
-10 -66 4 -72 7 -2 11 -14 9 -26 -4 -21 -4 -21 5 -2 6 15 5 23 -7 32 -14 12
-14 14 4 27 13 10 23 11 31 4 9 -7 13 -7 13 1 0 6 -5 11 -11 11 -8 0 -8 4 -1
13 13 15 -1 43 -16 33 -6 -3 -13 -2 -17 3 -3 5 -14 8 -25 6 -12 -2 -18 0 -16
4 3 4 -1 8 -9 8 -8 0 -11 -5 -8 -10 4 -6 1 -7 -7 -2 -9 6 -11 4 -5 -5 6 -10 4
-11 -6 -4 -8 4 -23 10 -34 11 -14 2 -16 1 -7 -6 11 -6 10 -9 -3 -15 -24 -9
-32 -7 -16 3 9 6 10 11 2 15 -6 4 -11 2 -11 -5 0 -8 -4 -8 -15 1 -12 10 -15
10 -15 0 0 -8 -3 -10 -6 -7 -4 4 -1 13 6 22 8 10 9 15 1 15 -6 0 -11 -5 -11
-10 0 -6 -3 -9 -7 -9 -20 3 -33 -2 -31 -12 2 -6 -3 -14 -10 -16 -29 -11 8 34
38 47 17 7 28 16 23 19 -4 3 -15 15 -23 26 -10 14 -6 12 14 -5 27 -25 28 -25
43 -5 12 15 14 16 10 3 -7 -20 18 -45 28 -28 3 5 1 10 -4 10 -6 0 -11 4 -11 9
0 6 9 8 20 6 28 -5 41 -15 35 -25 -3 -5 -1 -11 5 -15 5 -3 10 3 10 13 0 11 7
23 16 26 14 5 15 4 4 -9 -7 -9 -10 -18 -7 -21 3 -3 12 3 19 15 7 12 17 21 22
21 4 0 3 -6 -3 -13 -15 -19 -2 -29 16 -12 8 8 20 15 26 15 7 0 4 -5 -6 -11 -9
-6 -14 -15 -11 -21 4 -7 2 -8 -4 -4 -7 4 -12 2 -12 -4 0 -6 8 -10 18 -8 9 2
16 10 14 17 -1 7 2 10 7 7 5 -3 12 1 15 10 5 12 10 14 20 5 7 -6 17 -7 21 -3
5 4 5 2 2 -4 -4 -7 6 -11 28 -11 28 0 32 3 24 14 -8 8 -8 13 -1 13 6 0 12 -6
15 -12 3 -9 10 -7 21 7 8 11 16 15 16 9 0 -5 -5 -15 -12 -22 -9 -9 -9 -12 0
-12 6 0 17 9 24 20 7 11 17 20 22 20 5 0 1 -9 -9 -20 -10 -11 -13 -20 -7 -20
6 0 14 5 17 10 5 8 11 7 21 -1 17 -14 19 2 2 21 -11 12 -10 12 5 1 9 -7 17
-21 17 -29 0 -12 3 -13 12 -4 8 8 8 15 -3 29 -13 16 -12 17 4 4 11 -9 15 -21
11 -34 -5 -15 -3 -17 7 -11 8 5 20 9 28 11 8 1 18 8 23 15 6 8 7 4 2 -12 -6
-21 -5 -23 8 -13 8 7 18 10 21 6 4 -3 7 -1 7 6 0 8 7 10 20 6 11 -4 20 -2 20
4 0 10 -14 15 -33 12 -5 -1 -6 3 -2 9 9 15 48 -8 41 -25 -3 -9 2 -13 15 -12
10 1 19 4 19 8 0 4 9 11 20 14 11 4 18 10 16 14 -3 4 5 8 16 8 20 2 20 1 2
-13 -19 -15 -19 -15 0 -10 10 4 24 2 31 -4 9 -8 14 -6 19 6 3 9 13 14 20 11 8
-3 16 -2 18 3 2 5 12 2 22 -6 13 -9 15 -14 6 -14 -9 0 -8 -5 6 -16 10 -8 13
-12 5 -8 -9 4 -19 0 -28 -11 -7 -11 -13 -14 -13 -9 0 6 3 14 7 18 16 16 10 34
-13 34 -13 0 -24 -4 -24 -9 0 -5 7 -9 15 -9 23 0 18 -16 -5 -17 -13 -1 -18 2
-14 10 4 8 2 7 -7 -1 -8 -7 -14 -18 -14 -24 0 -6 -6 -13 -13 -16 -11 -3 -12 0
-3 16 10 19 9 21 -19 17 -16 -2 -30 1 -30 6 0 6 -5 7 -11 3 -8 -5 -8 -9 1 -14
6 -4 -6 -7 -28 -6 -22 1 -38 4 -36 8 2 4 0 9 -5 13 -6 3 -8 -3 -6 -15 2 -11
-1 -20 -7 -20 -5 0 -7 8 -4 18 5 14 4 14 -9 -2 -11 -14 -15 -16 -15 -5 0 12
-2 12 -10 -1 -9 -13 -10 -13 -10 0 0 13 -1 13 -10 0 -7 -11 -10 -11 -10 -2 0
7 -5 10 -11 6 -8 -4 -7 -9 2 -15 9 -5 3 -7 -16 -5 -27 3 -44 -7 -45 -26 0 -5
5 -8 11 -8 5 0 7 5 4 10 -3 6 1 10 10 10 9 0 14 -4 10 -9 -3 -6 3 -14 13 -20
14 -7 21 -5 30 10 9 14 9 19 0 19 -15 0 -1 13 18 16 8 1 14 -3 13 -9 -3 -24 1
-37 12 -37 8 0 8 4 0 13 -8 11 -5 14 19 14 17 0 30 -4 30 -9 0 -4 -4 -8 -10
-8 -5 0 -10 -5 -10 -11 0 -8 6 -7 17 2 15 12 16 12 10 -4 -4 -11 -3 -16 3 -12
6 3 10 1 10 -4 0 -6 4 -11 9 -11 5 0 0 18 -12 39 -12 22 -26 37 -31 34 -5 -4
-6 -1 -2 6 4 6 13 8 19 4 7 -4 15 -8 20 -9 4 -1 10 -2 15 -3 4 -1 2 -5 -4 -9
-8 -5 -5 -16 9 -37 17 -27 18 -21 1 20 -4 10 0 13 15 10 12 -2 21 0 21 6 0 5
4 9 9 9 5 0 7 -9 4 -19 -3 -13 -11 -18 -21 -14 -13 3 -13 1 2 -11 20 -16 20
-16 0 -32 -18 -14 -18 -15 4 -4 12 6 22 16 21 23 -3 27 2 47 12 47 5 0 7 -6 3
-12 -6 -10 -4 -10 7 -1 7 7 18 13 24 13 5 -1 -1 -10 -14 -20 -13 -11 -19 -20
-14 -20 5 0 14 5 21 12 8 8 15 8 28 -3 12 -9 15 -10 10 -1 -4 6 -2 13 3 13 6
1 17 2 24 3 6 1 17 -5 24 -14 7 -8 13 -10 13 -4 0 5 -5 15 -12 22 -17 17 4 15
28 -3 10 -8 24 -14 29 -14 6 0 2 4 -7 10 -22 13 -14 34 15 36 21 2 21 1 3 -13
-11 -8 -15 -14 -9 -14 6 0 16 7 23 15 13 15 30 12 30 -6 0 -6 -4 -8 -9 -5 -5
3 -14 -1 -20 -8 -15 -18 5 -34 22 -17 9 9 12 19 16 64 1 5 5 6 11 2 5 -3 6
-13 3 -23 -5 -15 -4 -15 9 1 13 18 14 17 14 -2 0 -12 -6 -21 -13 -21 -16 0
-17 -16 -1 -26 6 -4 8 -3 5 3 -4 6 0 13 8 17 8 3 19 -3 24 -12 6 -9 11 -12 11
-6 0 5 -5 15 -10 20 -8 8 -6 15 6 25 16 12 17 12 11 -3 -6 -17 35 -53 47 -41
10 10 7 33 -4 33 -5 0 -6 -8 -3 -17 6 -16 5 -17 -13 -3 -10 8 -21 15 -22 16
-2 1 6 8 19 14 19 11 25 10 36 -6 7 -10 13 -13 13 -8 0 6 -5 15 -12 22 -8 8
-8 15 2 27 7 8 17 15 22 15 6 0 6 -6 -1 -14 -15 -18 -5 -43 17 -43 9 0 28 9
41 21 l23 21 -6 -25 c-7 -24 -6 -24 8 -6 9 11 16 16 16 12 0 -5 7 -3 15 4 9 8
15 9 15 2 0 -6 -8 -17 -18 -24 -18 -13 -18 -14 1 -33 19 -19 19 -19 10 -1 -8
15 -7 23 3 34 9 9 12 22 8 35 -6 20 -5 20 10 8 9 -8 15 -20 12 -28 -7 -16 17
-28 40 -19 13 5 14 9 4 21 -8 10 -9 15 -2 15 6 0 14 -5 17 -10 3 -6 11 -10 18
-10 6 0 1 7 -11 16 -26 18 -49 10 -31 -12 9 -11 7 -14 -9 -14 -23 0 -21 15 5
57 10 15 11 23 3 28 -6 4 -14 4 -17 1 -4 -3 -1 -6 6 -6 9 0 9 -5 1 -20 -6 -11
-16 -20 -22 -20 -9 0 -9 3 0 12 17 17 15 27 -7 25 -11 0 -17 -6 -13 -12 3 -5
-3 -3 -13 5 -10 8 -16 10 -12 4 4 -7 1 -11 -6 -10 -6 0 -12 -3 -12 -9 0 -5 6
-9 13 -9 7 1 11 -3 9 -10 -3 -6 -11 -9 -18 -7 -8 2 -22 3 -31 3 -15 -1 -15 2
-6 18 7 10 21 23 31 27 17 8 17 10 -7 23 -21 11 -29 11 -39 1 -9 -10 -9 -12 5
-9 9 1 16 -1 15 -7 -4 -20 -24 -12 -40 18 -14 23 -14 27 -3 18 10 -9 20 -9 32
-3 12 7 22 4 36 -10 19 -19 19 -19 43 4 17 16 20 25 12 30 -9 6 -9 8 0 8 7 0
16 -8 22 -17 5 -10 13 -15 17 -11 4 4 1 16 -7 25 -12 16 -12 17 1 6 9 -7 21
-8 29 -3 22 13 42 0 35 -22 -5 -17 -3 -18 14 -9 11 6 22 7 26 4 3 -3 6 2 6 11
0 12 -5 16 -14 13 -11 -4 -13 -1 -9 10 5 14 9 13 25 -7 11 -14 18 -17 18 -8 0
8 -6 20 -12 27 -11 11 -9 11 9 0 11 -7 19 -19 16 -26 -3 -8 0 -11 9 -8 18 7
19 35 2 35 -18 0 -27 17 -13 26 7 4 9 3 6 -3 -9 -15 34 -25 50 -11 7 5 10 15
6 22 -3 6 -3 8 2 4 4 -4 15 -2 24 4 12 10 12 8 -1 -8 -13 -15 -15 -23 -6 -32
8 -8 8 -15 -3 -28 -12 -16 -12 -17 4 -11 10 4 16 3 12 -2 -3 -5 -1 -12 5 -16
5 -3 10 -11 10 -17 0 -6 -6 -5 -16 3 -24 20 -44 20 -37 1 4 -10 3 -14 -1 -10
-6 5 -10 16 -15 47 -1 3 -8 -4 -17 -15 -8 -10 -13 -14 -9 -7 8 17 -33 8 -55
-12 -9 -8 -21 -15 -26 -15 -5 0 -2 5 6 11 12 8 11 9 -5 7 -11 -2 -24 -7 -28
-13 -5 -6 -7 -3 -3 8 8 24 -1 21 -15 -4 -6 -12 -7 -19 -2 -16 5 4 10 0 10 -8
0 -8 -4 -12 -9 -9 -4 3 -8 0 -8 -5 0 -6 6 -11 14 -11 8 0 16 -3 19 -7 2 -5 2
-1 0 7 -8 29 -8 33 5 37 7 3 12 1 11 -4 -4 -21 2 -33 18 -33 15 0 14 2 -3 14
-18 14 -18 15 4 13 12 -1 22 -8 23 -17 0 -9 4 -6 9 8 12 28 24 29 15 2 -8 -24
10 -50 34 -49 13 0 14 2 1 6 -16 6 -30 23 -30 37 0 5 7 3 15 -4 13 -11 18 -10
31 6 14 18 15 17 10 -11 l-5 -30 13 30 c8 16 11 36 8 45 -5 13 -3 13 11 2 8
-8 13 -21 11 -30 -5 -14 -4 -14 6 1 8 12 18 16 33 12 17 -5 19 -4 7 4 -8 5
-12 13 -8 16 10 11 49 -35 42 -48 -4 -7 -4 -9 1 -5 4 4 15 0 23 -10 10 -12 9
-8 -2 10 -20 34 -20 44 -1 28 18 -15 20 -4 2 14 -11 12 -26 15 -68 17 -9 0
-16 6 -17 12 -2 21 -7 42 -14 52 -3 6 0 19 8 30 8 10 14 14 14 9 0 -6 -5 -15
-10 -20 -8 -8 -6 -15 5 -24 14 -12 16 -12 15 1 -5 33 -1 42 15 29 18 -15 20 1
3 19 -11 11 -9 11 9 0 16 -10 19 -17 12 -26 -14 -16 -3 -33 21 -33 14 0 18 -5
13 -16 -5 -13 -7 -13 -14 -2 -7 11 -11 10 -19 -2 -9 -13 -10 -13 -11 0 -1 8
-1 19 0 23 1 4 -8 3 -20 -3 -26 -15 -12 -32 26 -32 15 0 33 -10 45 -26 11 -13
20 -21 20 -17 0 5 -7 17 -17 27 -20 22 1 25 23 3 23 -23 58 -2 44 25 -8 14 -8
20 0 20 6 0 15 -10 20 -22 6 -16 9 -18 9 -6 1 9 7 19 14 22 6 3 3 4 -8 3 -11
-1 -21 5 -23 16 -2 9 2 17 8 17 6 0 9 -4 6 -8 -2 -4 4 -9 15 -9 10 -1 19 2 19
8 0 5 -5 8 -11 7 -6 -2 -13 2 -16 9 -2 6 3 10 11 9 20 -3 27 -10 30 -33 3 -19
36 -32 36 -14 0 6 -6 8 -14 5 -10 -4 -13 0 -11 13 2 10 4 20 4 23 1 3 6 -2 11
-10 6 -9 10 -10 10 -3 0 6 -4 15 -10 18 -16 10 -12 25 6 25 10 0 14 6 10 15
-3 8 -1 15 4 15 6 0 10 -4 10 -10 0 -13 11 -13 30 0 13 9 13 11 0 20 -8 5 -24
7 -35 4 -19 -6 -19 -5 -3 11 16 17 18 17 42 2 14 -10 29 -17 33 -17 4 0 1 5
-7 10 -8 5 -15 15 -15 22 0 8 -11 12 -25 11 -24 -3 -24 -2 -6 11 10 8 15 19
12 24 -3 6 1 13 10 16 12 4 14 1 9 -14 -4 -11 -2 -20 3 -20 5 0 8 16 8 35 -1
36 -38 76 -51 55 -4 -6 -11 -7 -17 -4 -7 5 -8 2 -2 -7 12 -19 14 -39 4 -39
-10 0 -8 -20 4 -39 7 -10 6 -12 -4 -6 -8 5 -11 4 -6 -3 3 -6 -2 -15 -11 -21
-11 -6 -13 -11 -5 -11 7 0 10 -5 6 -11 -4 -8 -9 -7 -15 2 -13 21 -11 29 8 29
22 0 7 13 -17 15 -15 1 -19 -3 -15 -16 3 -9 1 -20 -5 -24 -5 -3 -10 -11 -10
-17 0 -7 4 -7 13 1 11 8 18 6 32 -9 11 -12 13 -20 6 -20 -6 0 -14 7 -17 15 -5
13 -8 13 -21 -1 -18 -18 -38 -14 -38 8 0 8 -7 24 -15 34 -14 17 -13 18 1 6 13
-10 19 -10 28 2 6 8 10 20 9 27 -2 8 3 13 10 11 6 -1 13 2 13 8 1 5 3 15 4 20
1 6 3 13 4 16 0 4 8 1 16 -6 9 -8 15 -9 15 -2 0 6 -5 14 -10 17 -8 5 -7 11 0
20 7 8 9 19 5 25 -3 5 -1 10 4 10 6 0 11 -5 11 -11 0 -8 4 -8 14 0 10 8 16 9
21 1 3 -5 14 -10 23 -9 15 0 15 1 -1 8 -10 4 -18 10 -18 14 2 18 0 19 -14 7
-18 -15 -35 -5 -35 21 0 12 4 17 11 14 6 -4 5 2 -2 13 -10 16 -10 23 0 36 7 9
9 21 5 28 -15 23 -15 50 -2 42 9 -6 9 -3 0 9 -8 9 -12 22 -9 29 2 7 0 21 -4
30 -5 9 -6 19 -1 21 7 5 8 96 0 127 -1 8 -7 18 -13 22 -6 5 -5 8 3 8 8 0 9 5
3 17 -4 10 -16 39 -24 66 l-16 47 34 34 c18 19 37 31 41 28 4 -4 4 -2 1 4 -4
7 0 17 8 24 8 7 15 16 15 21 0 4 5 20 12 36 16 41 19 52 22 109 2 29 6 57 10
63 4 6 2 11 -4 11 -7 0 -8 6 -1 18 6 11 6 24 1 32 -5 8 -5 19 -1 25 7 9 7 28
1 40 -6 13 -6 32 2 47 6 12 5 18 -2 18 -6 0 -8 5 -3 13 11 18 12 36 2 43 -5 3
-6 11 -2 17 11 17 10 31 0 38 -6 4 -6 13 -1 20 12 20 14 38 3 45 -5 3 -6 11
-2 17 11 17 10 31 -1 39 -6 4 -5 12 3 21 8 10 9 17 1 22 -7 4 -7 12 0 26 8 13
7 19 0 19 -6 0 -8 5 -3 13 11 18 12 36 2 43 -6 4 -6 10 0 17 14 18 14 29 1 37
-8 5 -9 13 -4 21 12 20 14 38 3 45 -6 4 -6 10 0 17 14 18 14 29 1 37 -8 5 -9
13 -4 21 11 19 13 49 2 49 -5 0 -6 5 -2 12 10 17 11 68 0 68 -5 0 -4 6 2 13 5
6 6 21 2 32 -4 11 -3 28 2 37 6 12 5 18 -2 18 -6 0 -8 5 -3 13 11 18 12 36 2
43 -6 4 -6 10 0 17 14 18 14 29 1 37 -8 5 -9 13 -4 21 12 20 14 38 3 45 -6 4
-6 10 0 17 14 18 14 29 1 37 -8 5 -9 13 -4 21 11 19 13 49 2 49 -5 0 -6 5 -2
12 10 16 11 68 1 68 -5 0 -5 5 -1 12 10 16 11 68 1 68 -5 0 -5 5 -1 12 10 17
11 68 0 68 -5 0 -4 6 2 13 5 6 6 21 2 32 -4 11 -3 28 2 38 6 11 5 17 -2 17 -6
0 -8 5 -3 13 11 18 12 36 2 43 -5 3 -6 11 -2 17 11 17 13 37 4 37 -4 0 -8 7
-8 15 0 8 3 15 7 15 4 0 6 12 4 27 -1 15 6 46 17 69 24 55 24 110 -1 159 -11
22 -18 45 -15 52 2 7 0 13 -6 13 -6 0 -7 5 -3 12 10 17 11 68 0 68 -5 0 -4 6
2 13 5 6 6 21 2 32 -4 11 -3 28 2 38 6 11 5 17 -2 17 -6 0 -8 5 -3 13 11 18
12 36 2 43 -5 3 -6 11 -2 17 11 17 13 37 4 37 -4 0 -8 7 -8 15 0 8 4 15 8 15
9 0 7 20 -4 37 -4 6 -3 14 2 18 7 3 7 15 1 29 -5 13 -6 27 -2 30 9 10 10 46 0
46 -5 0 -6 5 -2 12 10 16 11 68 1 68 -5 0 -5 5 -1 12 10 16 11 68 1 68 -5 0
-5 5 -1 12 10 17 11 68 0 68 -5 0 -4 6 2 13 5 6 6 21 2 32 -4 11 -3 28 2 38 6
11 5 17 -2 17 -6 0 -8 5 -3 13 11 18 12 36 2 43 -6 4 -6 10 0 17 14 18 14 29
1 37 -8 5 -9 13 -4 21 12 20 14 38 3 45 -6 3 -5 12 3 21 15 18 15 23 -2 33 -8
5 -9 13 -4 21 11 19 13 49 2 49 -5 0 -6 5 -2 12 10 16 11 68 1 68 -5 0 -5 5
-1 12 10 16 11 68 1 68 -5 0 -5 5 -1 12 10 17 11 68 0 68 -5 0 -4 6 2 13 5 6
6 21 2 32 -4 11 -3 28 2 38 6 11 5 17 -2 17 -6 0 -8 5 -3 13 11 18 12 36 2 43
-6 4 -6 10 0 17 14 18 14 29 1 37 -8 5 -9 13 -4 21 12 20 14 38 3 45 -6 4 -6
10 0 17 14 18 14 29 1 37 -7 4 -9 13 -5 20 8 13 13 120 5 120 -3 0 -6 21 -7
48 -2 67 -41 148 -104 215 -31 31 -58 57 -63 57 -4 0 -19 11 -34 25 -15 14
-32 25 -39 25 -7 0 -13 5 -13 11 0 5 -4 7 -10 4 -5 -3 -10 -2 -10 2 0 9 -59
37 -72 34 -5 0 -8 3 -8 9 0 5 -9 10 -20 10 -11 0 -20 5 -20 11 0 5 -5 7 -11 4
-14 -9 -60 35 -52 49 11 17 10 60 -2 68 -6 5 -5 8 3 8 8 0 10 5 5 13 -10 14
-13 947 -3 947 10 0 6 64 -5 72 -6 5 -6 8 1 8 7 0 10 13 9 30 -1 16 7 47 18
67 22 42 32 119 17 128 -6 4 -8 10 -6 14 7 10 -61 82 -98 105 -30 19 -111 32
-102 17 3 -5 -3 -11 -14 -14 -28 -7 -45 -55 -29 -84 7 -13 18 -23 26 -23 7 0
13 -7 13 -15 0 -8 5 -15 10 -15 6 0 10 -6 10 -13 0 -14 -40 -37 -65 -37 -8 0
-15 -4 -15 -8 0 -8 -7 -10 -50 -14 -11 -1 -20 -5 -20 -8 0 -4 -6 -7 -12 -7
-13 -1 -34 -5 -125 -23 -30 -7 -68 -13 -86 -15 -18 -2 -32 -4 -32 -5 0 -1 -21
-3 -47 -5 -25 -1 -51 -6 -57 -9 -6 -4 -11 -2 -11 5 0 8 -4 8 -12 2 -7 -6 -34
-10 -61 -9 -26 0 -47 -1 -47 -4 0 -8 -83 -4 -102 5 -10 4 -25 5 -33 2 -8 -4
-17 -2 -19 2 -7 11 -197 8 -215 -3 -10 -7 -12 -5 -6 5 5 9 1 7 -11 -3 -12 -11
-30 -16 -45 -13 -14 3 -66 7 -115 9 -49 3 -89 5 -89 6 0 1 -18 4 -40 6 -58 5
-107 12 -130 17 -11 2 -42 8 -70 12 -27 5 -52 9 -55 9 -3 1 -9 4 -15 7 -5 4
-18 5 -27 4 -10 -2 -18 2 -18 8 0 5 -3 8 -6 5 -9 -10 -141 39 -147 54 -1 3 17
24 41 47 30 30 40 46 33 54 -5 7 -9 14 -8 17 3 10 -28 45 -43 49 -27 8 -80 9
-80 2z m55 -551 c4 -6 10 -8 14 -6 4 3 8 -199 8 -449 l0 -454 -21 4 c-12 2
-25 4 -30 4 -5 1 -3 8 4 16 7 8 8 15 3 15 -8 0 -11 87 -3 115 1 6 1 12 0 15
-7 14 -6 87 2 102 4 9 4 19 0 22 -8 5 -9 74 -2 101 1 6 1 12 0 15 -7 14 -6 87
1 101 5 9 5 20 1 24 -10 10 -10 77 0 97 4 9 4 19 0 22 -8 5 -9 74 -2 101 1 6
1 12 0 15 -1 3 -3 38 -4 78 -1 52 1 72 10 72 7 0 16 -5 19 -10z m1824 -444 l0
-454 -21 -5 c-29 -8 -42 1 -27 19 7 9 8 14 1 14 -11 0 -9 31 3 49 3 5 1 12 -4
16 -10 5 -7 42 4 53 2 3 0 11 -6 19 -9 10 -8 13 2 13 9 0 10 3 4 8 -6 4 -11
16 -11 27 0 11 5 23 11 27 6 5 5 8 -3 8 -9 0 -10 5 -2 19 6 12 6 22 1 25 -10
7 -9 25 2 44 5 6 4 12 -2 12 -10 0 -8 31 4 49 3 5 1 12 -4 16 -10 5 -7 42 4
53 2 3 0 11 -6 19 -9 10 -8 13 2 13 9 0 10 3 4 8 -6 4 -11 16 -11 27 0 11 5
23 11 27 6 5 5 8 -3 8 -9 0 -10 5 -2 19 6 12 6 22 1 25 -10 7 -9 25 2 44 5 6
4 12 -2 12 -10 0 -9 19 2 38 5 6 4 12 -1 12 -10 0 -9 51 2 68 3 6 2 13 -2 16
-10 6 -9 36 2 54 4 6 3 12 -3 12 -6 0 -8 7 -5 15 4 8 10 12 15 9 5 -3 9 0 9 5
0 6 7 11 15 11 12 0 14 -64 14 -454z m-1379 362 c0 8 5 10 13 5 6 -4 41 -9 77
-10 60 -2 173 -9 194 -12 4 -1 6 -8 2 -16 -3 -8 -1 -15 5 -15 6 0 9 -6 6 -14
-3 -8 3 -23 14 -35 11 -12 17 -21 13 -21 -3 0 -1 -6 5 -13 7 -9 10 -50 9 -108
-2 -85 -5 -96 -26 -114 -37 -32 -35 -78 5 -125 9 -10 17 -30 19 -44 2 -19 -4
-28 -27 -38 -28 -13 -29 -14 -29 -90 0 -43 -3 -79 -7 -79 -5 -1 -28 -3 -53 -4
-85 -6 -185 -14 -220 -19 l-35 -4 0 56 c0 31 5 60 10 64 7 5 6 8 -1 8 -11 0
-13 175 -1 186 3 4 3 12 0 18 -12 18 -9 186 2 186 7 0 7 3 0 8 -14 9 -14 225
-1 234 6 4 14 2 18 -5 6 -9 8 -9 8 1z m929 -4 c4 3 7 -165 7 -372 l-1 -376
-27 1 c-16 1 -29 2 -30 3 -2 1 -23 4 -48 5 -25 2 -49 5 -55 5 -5 1 -19 1 -30
0 -41 -1 -104 6 -111 13 -4 4 -8 38 -8 76 -1 72 -6 86 -34 86 -26 0 -24 75 2
96 30 25 29 87 -2 116 -20 19 -25 33 -28 95 -2 40 1 78 7 84 7 8 7 14 0 18 -6
4 -8 13 -5 21 4 8 10 12 15 9 5 -3 9 4 9 15 0 11 6 26 13 33 8 7 13 23 12 36
-1 12 1 22 4 23 3 0 33 2 66 4 178 11 217 14 223 20 4 3 8 1 10 -4 2 -6 7 -9
11 -7z m-259 -5920 c0 4 10 1 23 -5 19 -11 20 -10 10 3 -10 12 -10 15 2 15 7
0 14 -3 13 -6 -2 -20 3 -31 12 -26 5 3 8 11 6 18 -1 7 -1 9 1 5 3 -5 9 -8 14
-8 6 0 8 4 5 8 -3 5 1 9 9 9 10 0 12 -4 5 -12 -18 -22 2 -24 22 -2 11 12 17
17 13 10 -7 -15 46 -13 58 2 5 6 7 4 4 -5 -2 -8 -10 -14 -16 -12 -6 1 -11 -3
-11 -8 0 -13 27 -13 35 1 4 6 13 8 20 5 7 -2 18 1 25 7 10 9 11 9 6 0 -5 -9 2
-11 24 -8 16 2 30 -1 30 -6 0 -6 6 -7 13 -2 22 13 39 13 28 -1 -6 -7 -8 -16
-4 -19 9 -9 23 -9 22 1 -4 25 2 34 15 23 7 -6 20 -10 27 -8 8 2 11 2 7 0 -5
-3 -8 -9 -8 -14 0 -6 5 -7 10 -4 6 3 10 1 10 -5 0 -7 -8 -9 -22 -5 -19 6 -21
5 -11 -6 7 -7 21 -14 31 -16 15 -2 19 3 16 22 -1 14 2 28 7 31 5 3 8 2 7 -3
-2 -4 2 -9 7 -9 6 -1 9 2 7 7 -1 5 6 4 17 -3 19 -11 26 -58 9 -58 -5 0 -6 5
-3 10 3 6 2 10 -3 10 -19 0 -21 -14 -5 -32 15 -17 15 -18 1 -13 -9 4 -19 13
-22 21 -5 12 -10 13 -26 4 -18 -10 -24 -7 -41 14 -11 14 -26 23 -33 20 -7 -3
-20 2 -29 10 -13 14 -16 14 -21 1 -3 -8 -1 -15 4 -15 12 0 13 -37 2 -44 -15
-9 -34 11 -30 34 1 13 -3 25 -10 27 -8 3 -10 -2 -6 -14 5 -15 4 -15 -5 -3 -6
8 -11 11 -11 7 0 -4 -9 -3 -20 3 -14 8 -20 8 -20 0 0 -6 7 -13 15 -16 16 -7
21 -24 6 -24 -5 0 -16 15 -25 33 -8 17 -16 26 -16 19 0 -7 -4 -10 -10 -7 -16
10 -50 15 -50 7 -1 -12 -50 -68 -50 -56 0 5 9 20 21 33 12 12 18 25 14 29 -4
4 -15 -3 -25 -15 -10 -13 -21 -23 -25 -23 -4 0 -2 6 4 13 11 14 5 27 -11 27
-5 0 -6 -5 -2 -11 3 -6 -6 -3 -22 7 l-29 19 29 -37 c24 -33 29 -67 6 -53 -4 3
-11 -2 -14 -11 -3 -8 -10 -13 -15 -10 -5 4 -12 1 -14 -4 -4 -7 -5 -6 -3 1 1 6
5 10 10 9 5 -1 13 5 18 14 5 9 13 14 19 11 15 -10 11 5 -8 29 -10 12 -24 21
-30 20 -7 -1 -18 -2 -24 -3 -5 0 -7 -6 -4 -12 4 -6 -2 -5 -14 3 -13 8 -19 19
-15 30 4 13 1 16 -11 12 -9 -4 -13 -9 -11 -12 3 -3 1 -11 -5 -19 -9 -10 -8
-13 5 -13 19 0 21 -16 4 -26 -7 -4 -8 -3 -4 4 4 7 3 12 -3 12 -5 0 -20 15 -32
33 -12 17 -16 27 -9 20 13 -12 43 -7 35 6 -5 9 32 7 41 -2 15 -15 26 -6 13 11
-13 15 -12 16 4 3 9 -7 17 -10 17 -7z m-137 -34 c-31 -13 -29 -24 3 -16 17 5
23 3 19 -4 -7 -11 -38 -14 -48 -3 -10 9 13 33 32 32 11 0 9 -3 -6 -9z m-913
-23 c0 -5 7 -4 16 3 12 11 18 10 32 -4 14 -14 14 -17 2 -14 -8 2 -14 -3 -12
-10 1 -8 -2 -11 -8 -7 -8 5 -7 11 1 21 9 10 9 14 0 14 -6 0 -14 -7 -17 -15 -4
-8 -11 -15 -17 -15 -6 0 -7 3 -4 7 4 3 -1 11 -9 18 -15 11 -15 12 0 12 9 0 16
-5 16 -10z m1220 3 c0 -5 6 -7 13 -4 8 3 20 -3 28 -13 13 -16 12 -17 -3 -5 -9
8 -21 11 -26 8 -6 -3 -15 1 -22 9 -9 10 -9 15 -1 15 6 0 11 -4 11 -10z m-1243
-27 c-3 -2 -13 -5 -23 -7 -43 -9 -49 -12 -56 -26 -4 -9 -6 -3 -4 14 3 32 30
43 55 23 12 -10 14 -9 8 7 -6 16 -5 17 8 6 9 -7 14 -15 12 -17z m898 7 c-3 -4
2 -11 11 -14 8 -3 12 -10 9 -16 -3 -5 3 -10 14 -10 12 0 20 6 19 12 -2 7 8 14
22 15 22 2 22 1 4 -5 -13 -4 -20 -14 -18 -24 1 -10 -3 -21 -8 -25 -7 -3 -8 -1
-4 5 10 16 -26 15 -44 0 -11 -10 -11 -9 0 6 17 22 17 26 -1 37 -7 4 -14 15
-15 23 -1 9 2 14 7 10 5 -3 7 -9 4 -14z m183 -2 c-2 -13 -12 -22 -25 -24 -27
-4 -35 7 -21 26 8 12 9 12 5 -2 -4 -12 0 -16 14 -15 11 1 19 9 19 19 0 10 3
18 6 18 3 0 4 -10 2 -22z m142 2 c0 -5 -7 -13 -16 -18 -9 -5 -15 -13 -14 -18
1 -5 -3 -9 -9 -10 -7 -2 -8 -1 -1 3 5 2 8 9 4 14 -3 5 2 12 10 15 9 3 13 10
10 15 -3 5 0 9 5 9 6 0 11 -4 11 -10z m237 -6 c7 -20 -26 -24 -36 -5 -9 15 -7
18 11 17 12 0 23 -6 25 -12z m-1562 -24 c-5 -8 -11 -8 -17 -2 -6 6 -16 8 -23
6 -7 -3 -16 0 -21 7 -4 8 -3 10 4 5 7 -4 20 -3 29 3 20 11 39 -1 28 -19z
m1440 10 c-5 -16 -3 -19 12 -14 15 5 15 4 3 -5 -19 -13 -33 0 -24 22 9 24 17
21 9 -3z m-83 3 c-12 -2 -20 -8 -18 -12 3 -4 0 -13 -5 -21 -7 -11 -8 -8 -5 10
3 14 5 26 5 28 1 1 11 1 24 1 l22 -2 -23 -4z m1018 -3 c0 -5 -5 -10 -11 -10
-5 0 -7 5 -4 10 3 6 8 10 11 10 2 0 4 -4 4 -10z m-2236 -9 c-8 -8 -53 -7 -48
1 3 4 16 7 29 6 13 -1 22 -4 19 -7z m1266 -6 c0 -8 -4 -15 -8 -15 -5 0 -9 7
-9 15 0 8 4 15 9 15 4 0 8 -7 8 -15z m233 -5 c3 -11 1 -18 -4 -14 -5 3 -9 12
-9 20 0 20 7 17 13 -6z m-1563 6 c0 -3 -4 -8 -10 -11 -5 -3 -10 -1 -10 4 0 6
5 11 10 11 6 0 10 -2 10 -4z m1024 -11 c-4 -8 -8 -15 -10 -15 -2 0 -4 7 -4 15
0 8 4 15 10 15 5 0 7 -7 4 -15z m166 11 c0 -2 -7 -7 -16 -10 -8 -3 -12 -2 -9
4 6 10 25 14 25 6z m243 -16 c-10 -11 -19 -20 -21 -20 -1 0 2 9 8 20 6 11 15
20 20 20 6 0 2 -9 -7 -20z m81 12 c3 -5 -1 -9 -9 -9 -8 0 -15 4 -15 9 0 4 4 8
9 8 6 0 12 -4 15 -8z m-104 -7 c0 -2 -10 -9 -22 -15 -22 -11 -22 -10 -4 4 21
17 26 19 26 11z m-360 -9 c0 -3 -4 -8 -10 -11 -5 -3 -10 -1 -10 4 0 6 5 11 10
11 6 0 10 -2 10 -4z m40 -6 c0 -5 -7 -7 -15 -4 -8 4 -15 8 -15 10 0 2 7 4 15
4 8 0 15 -4 15 -10z m53 -5 c-3 -9 -8 -14 -10 -11 -3 3 -2 9 2 15 9 16 15 13
8 -4z m56 -8 c0 -9 -2 -8 -6 1 -2 6 -10 9 -15 6 -7 -4 -8 -2 -4 5 9 13 26 5
25 -12z m50 -17 c0 -10 -3 -8 -9 5 -12 27 -12 43 0 25 5 -8 9 -22 9 -30z m35
24 c3 -8 2 -12 -4 -9 -6 3 -10 10 -10 16 0 14 7 11 14 -7z m26 -9 c0 -8 -3
-16 -7 -18 -5 -3 -8 5 -8 18 0 13 3 21 8 18 4 -2 7 -10 7 -18z m33 10 c-3 -9
-8 -14 -10 -11 -3 3 -2 9 2 15 9 16 15 13 8 -4z m104 -4 c0 -11 -5 -18 -9 -15
-4 3 -5 11 -1 19 7 21 12 19 10 -4z m97 11 c3 -5 -1 -9 -9 -9 -8 0 -12 4 -9 9
3 4 7 8 9 8 2 0 6 -4 9 -8z m-524 -27 c19 -22 8 -25 -12 -3 -10 10 -14 18 -9
18 5 0 14 -7 21 -15z m50 1 c0 -8 -4 -18 -10 -21 -6 -4 -7 1 -3 11 5 13 3 15
-7 9 -9 -5 -11 -4 -6 3 10 17 26 15 26 -2z m87 -8 c-3 -8 -6 -5 -6 6 -1 11 2
17 5 13 3 -3 4 -12 1 -19z m207 6 c3 -8 2 -12 -4 -9 -6 3 -10 10 -10 16 0 14
7 11 14 -7z m40 8 c3 -5 -1 -9 -9 -9 -8 0 -12 4 -9 9 3 4 7 8 9 8 2 0 6 -4 9
-8z m-194 -22 c0 -5 -4 -10 -10 -10 -5 0 -10 5 -10 10 0 6 5 10 10 10 6 0 10
-4 10 -10z m124 2 c3 -5 -1 -9 -9 -9 -8 0 -12 4 -9 9 3 4 7 8 9 8 2 0 6 -4 9
-8z m-1844 -73 c0 -5 -4 -9 -8 -9 -5 0 -9 7 -9 15 0 8 4 12 9 9 4 -3 8 -9 8
-15z m2870 -21 c0 -4 -9 -12 -20 -18 -11 -6 -18 -15 -15 -20 3 -5 1 -11 -5
-15 -5 -3 -10 3 -10 14 0 12 6 21 13 21 8 0 7 4 -3 11 -12 8 -9 9 10 4 l25 -6
-23 14 c-12 7 -20 16 -16 19 7 8 44 -13 44 -24z m-2913 -5 c-4 -3 -2 -12 4
-19 7 -8 7 -14 -1 -19 -8 -5 -7 -11 2 -23 11 -13 11 -14 -8 -4 -19 10 -22 23
-15 65 0 4 6 7 13 7 6 0 8 -3 5 -7z m30 -90 c-4 -3 3 -18 15 -32 13 -14 16
-20 7 -13 -9 6 -19 9 -22 5 -4 -3 -14 0 -23 8 -14 12 -14 14 2 26 19 14 32 18
21 6z m2707 -12 c3 -5 -6 -8 -20 -8 -19 0 -22 2 -13 8 18 11 26 11 33 0z m-49
-21 c3 -6 17 -8 30 -6 19 4 23 1 18 -12 -3 -9 -3 -14 2 -10 4 4 16 3 26 -2 10
-6 19 -6 21 -1 7 20 31 15 33 -6 2 -23 -9 -31 -19 -14 -10 16 -38 5 -61 -23
-14 -18 -27 -25 -38 -20 -9 3 -17 10 -17 15 0 11 23 7 32 -6 4 -5 6 0 5 12 0
13 -7 25 -14 27 -7 3 -10 -1 -6 -10 3 -8 2 -14 -3 -13 -5 1 -15 1 -23 0 -11
-1 -11 -4 0 -18 12 -14 12 -16 -1 -11 -8 3 -14 14 -13 24 1 18 1 18 -11 2 -19
-26 -30 -22 -12 4 17 24 21 42 7 34 -4 -3 -17 1 -27 10 -18 15 -18 15 2 5 14
-7 24 -7 31 0 8 8 18 6 35 -5 24 -15 38 -13 38 6 0 5 -4 6 -10 3 -5 -3 -20 1
-32 9 -12 9 -17 16 -11 16 7 0 15 -5 18 -10z m195 0 c0 -5 -2 -10 -4 -10 -3 0
-8 5 -11 10 -3 6 -1 10 4 10 6 0 11 -4 11 -10z m-2624 -22 c4 -7 3 -8 -4 -4
-7 4 -12 2 -12 -3 0 -6 -5 -11 -11 -11 -8 0 -8 5 1 15 15 18 17 18 26 3z m61
-24 c-3 -3 -12 -4 -19 -1 -8 3 -5 6 6 6 11 1 17 -2 13 -5z m-145 -22 c7 -9 8
-14 4 -10 -5 4 -14 4 -20 -2 -8 -6 -16 -3 -23 8 -9 15 -7 18 8 19 10 1 23 -6
31 -15z m2328 8 c0 -5 -5 -10 -11 -10 -5 0 -7 5 -4 10 3 6 8 10 11 10 2 0 4
-4 4 -10z m-2045 -20 c3 -5 1 -10 -4 -10 -6 0 -11 5 -11 10 0 6 2 10 4 10 3 0
8 -4 11 -10z m-245 -42 c0 -6 -6 -5 -15 2 -8 7 -15 14 -15 16 0 2 7 1 15 -2 8
-4 15 -11 15 -16z m2505 6 c13 -13 14 -19 4 -25 -16 -10 -61 23 -45 33 16 11
23 10 41 -8z m-2140 -4 c-3 -5 -11 -10 -16 -10 -6 0 -7 5 -4 10 3 6 11 10 16
10 6 0 7 -4 4 -10z m1678 -17 c-3 -6 -11 -9 -19 -6 -20 7 -17 19 5 19 11 0 17
-6 14 -13z m-1882 -18 c3 2 5 -4 6 -15 1 -10 -5 -24 -13 -31 -14 -12 -14 -12
-18 27 -1 6 -8 19 -16 29 -14 18 -14 18 11 2 14 -10 28 -15 30 -12z m313 9 c3
-8 2 -12 -4 -9 -6 3 -10 4 -10 1 0 -2 -3 -13 -7 -23 -6 -15 -4 -16 9 -6 8 7
18 10 21 6 4 -3 7 -1 7 6 0 7 5 9 10 6 16 -10 11 7 -6 19 -13 10 -13 12 5 12
11 0 18 -2 16 -5 -7 -6 16 -31 28 -31 7 0 7 4 -1 12 -7 7 -12 16 -12 22 0 5 6
1 14 -9 8 -11 12 -26 9 -35 -3 -8 10 1 27 20 l32 35 -22 -33 -22 -33 29 7 c15
3 36 6 46 7 10 1 15 7 13 14 -3 7 -1 15 4 18 4 3 7 -6 6 -20 -2 -14 4 -31 12
-37 13 -11 15 -10 9 5 -8 21 1 47 16 47 7 0 7 -4 -1 -12 -16 -16 -15 -28 3
-28 8 0 15 -6 15 -12 0 -9 4 -8 10 2 14 22 12 30 -7 24 -15 -5 -16 -4 -3 5 11
8 18 7 27 -6 10 -13 8 -20 -15 -42 -15 -14 -29 -23 -30 -18 -2 4 -12 -3 -23
-15 -10 -13 -18 -17 -19 -10 0 6 5 12 10 12 6 0 10 5 10 12 0 6 -3 8 -7 5 -3
-4 -12 -2 -19 4 -10 9 -15 7 -20 -5 -6 -16 -25 -23 -23 -8 5 28 -2 35 -20 18
-16 -15 -19 -15 -31 -1 -7 9 -19 14 -26 11 -7 -3 -16 -1 -19 5 -4 5 -11 7 -16
4 -5 -4 -9 -2 -9 3 0 14 28 23 35 12 4 -6 11 -10 17 -10 7 0 6 6 -2 15 -17 20
-26 19 -50 -5 -11 -11 -20 -16 -20 -12 0 5 -7 9 -15 9 -8 0 -15 -5 -15 -10 0
-6 -2 -8 -5 -5 -5 5 24 78 31 78 1 0 5 -7 8 -16z m106 10 c0 -8 -19 -13 -24
-6 -3 5 1 9 9 9 8 0 15 -2 15 -3z m1332 -14 c-3 -8 -10 -21 -15 -28 -8 -10 -3
-12 22 -7 23 4 33 1 38 -11 5 -13 8 -13 15 -2 8 10 9 10 5 -2 -2 -8 -8 -14
-13 -13 -5 0 -15 -6 -23 -14 -12 -13 -11 -14 8 -8 11 3 21 2 21 -3 0 -15 -25
-21 -41 -11 -11 6 -11 11 -2 20 9 9 9 16 2 25 -9 11 -16 7 -36 -17 -14 -16
-33 -29 -43 -27 -9 2 -25 -4 -35 -12 -17 -14 -17 -13 -10 9 6 19 4 23 -8 18
-8 -3 -19 -1 -25 5 -8 8 -13 7 -17 -5 -6 -14 -9 -13 -26 4 -21 21 -39 25 -39
9 0 -5 9 -10 20 -10 11 0 20 -4 20 -9 0 -11 -32 -9 -46 4 -7 6 -11 20 -9 33 2
23 15 44 15 24 0 -6 12 -9 29 -7 19 3 31 -1 35 -11 5 -14 8 -14 27 0 12 8 29
12 38 9 13 -5 14 -3 4 8 -7 7 -13 20 -12 29 0 9 4 6 9 -7 5 -13 14 -23 20 -23
6 0 9 4 5 9 -3 5 0 13 6 17 8 4 9 3 5 -4 -4 -7 -5 -12 -2 -12 2 0 13 -3 23 -7
16 -6 16 -5 5 10 -17 20 -10 33 16 33 13 0 18 -5 14 -16z m366 -22 c14 3 14 2
2 -13 -13 -16 -15 -16 -27 1 -7 10 -13 23 -13 28 0 6 -4 5 -9 -3 -5 -8 -18
-16 -28 -17 -15 -2 -13 1 7 17 23 20 25 20 38 2 7 -10 20 -16 30 -15z m-1658
12 c0 -5 -5 -10 -11 -10 -5 0 -7 5 -4 10 3 6 8 10 11 10 2 0 4 -4 4 -10z m185
0 c3 -5 1 -10 -4 -10 -6 0 -11 5 -11 10 0 6 2 10 4 10 3 0 8 -4 11 -10z m865
-11 c0 -5 -4 -9 -8 -9 -5 0 -9 7 -9 15 0 8 4 12 9 9 4 -3 8 -9 8 -15z m114 -3
c-10 -8 -21 -12 -23 -10 -3 2 4 11 15 18 10 8 21 12 23 10 3 -2 -4 -11 -15
-18z m151 14 c3 -5 1 -10 -4 -10 -6 0 -11 5 -11 10 0 6 2 10 4 10 3 0 8 -4 11
-10z m345 6 c0 -3 -4 -8 -10 -11 -5 -3 -10 -1 -10 4 0 6 5 11 10 11 6 0 10 -2
10 -4z m-730 -16 c0 -5 -5 -10 -11 -10 -5 0 -7 5 -4 10 3 6 8 10 11 10 2 0 4
-4 4 -10z m-1320 -10 c0 -5 -5 -10 -11 -10 -5 0 -7 5 -4 10 3 6 8 10 11 10 2
0 4 -4 4 -10z m111 -7 c7 -7 5 -12 -6 -17 -12 -4 -16 -2 -12 7 3 8 -1 14 -8
14 -7 0 -10 -8 -7 -19 2 -10 -1 -18 -7 -18 -8 0 -9 30 -2 47 3 5 33 -5 42 -14z
m969 6 c0 6 5 11 11 11 8 0 8 -5 -1 -15 -16 -19 -26 -19 -34 1 -5 14 -4 15 9
4 10 -8 15 -9 15 -1z m160 7 c0 -3 -4 -8 -10 -11 -5 -3 -10 -1 -10 4 0 6 5 11
10 11 6 0 10 -2 10 -4z m185 -26 c-3 -5 -1 -10 5 -10 6 0 9 -4 5 -9 -3 -5 -1
-12 4 -16 16 -9 0 -37 -17 -30 -8 3 -20 1 -27 -5 -9 -8 -14 -7 -18 3 -7 19 7
39 24 35 9 -2 13 5 12 20 -2 12 2 22 8 22 5 0 7 -4 4 -10z m-1125 -40 c0 -5
-4 -10 -10 -10 -5 0 -10 5 -10 10 0 6 5 10 10 10 6 0 10 -4 10 -10z m221 -13
c-10 -9 -11 -8 -5 6 3 10 9 15 12 12 3 -3 0 -11 -7 -18z m748 2 c-7 -4 -16 -6
-20 -3 -4 2 -9 -1 -11 -7 -2 -7 -9 -5 -17 5 -12 14 -12 16 2 11 8 -4 18 -2 21
4 4 6 14 7 22 4 12 -4 13 -8 3 -14z m90 -5 c7 -17 6 -24 -4 -28 -7 -2 -16 2
-19 10 -4 10 -2 13 7 8 9 -5 9 -4 0 6 -10 11 -15 11 -30 -1 -16 -12 -17 -12
-6 2 7 9 11 18 8 20 -2 3 4 5 15 5 10 0 23 -10 29 -22z m-713 -13 c-4 -9 3 -5
15 9 18 22 19 22 10 3 -15 -30 -27 -36 -52 -23 -20 11 -20 12 -2 25 22 16 37
9 29 -14z m98 -12 c-9 -10 -21 -19 -26 -19 -15 0 -8 29 9 39 26 14 37 2 17
-20z m411 13 c-3 -3 -11 0 -18 7 -9 10 -8 11 6 5 10 -3 15 -9 12 -12z m-75
-13 c0 -5 -6 -9 -13 -9 -8 0 -14 6 -14 14 0 8 6 12 14 9 7 -3 13 -9 13 -14z
m430 -9 c0 -5 -5 -10 -11 -10 -5 0 -7 5 -4 10 3 6 8 10 11 10 2 0 4 -4 4 -10z"/>
<path d="M4283 1576 c-13 -7 -20 -16 -17 -19 4 -3 14 -2 24 3 10 5 20 6 24 2
4 -3 4 1 0 11 -3 9 -7 17 -8 16 0 -1 -11 -7 -23 -13z"/>
<path d="M4521 1569 c7 -4 17 -5 21 -3 4 3 8 0 8 -7 0 -8 4 -8 15 1 12 10 18
10 30 0 10 -9 15 -9 15 -1 0 12 1 12 -58 16 -25 1 -38 -1 -31 -6z"/>
<path d="M4210 1559 c0 -5 5 -7 10 -4 6 3 10 8 10 11 0 2 -4 4 -10 4 -5 0 -10
-5 -10 -11z"/>
<path d="M4675 1560 c3 -5 8 -10 11 -10 2 0 4 5 4 10 0 6 -5 10 -11 10 -5 0
-7 -4 -4 -10z"/>
<path d="M4775 1550 c-4 -6 -11 -8 -16 -5 -5 4 -9 2 -9 -4 0 -18 20 -23 26 -7
3 9 11 13 17 9 6 -3 7 -1 3 5 -9 15 -13 15 -21 2z"/>
<path d="M4600 1526 c0 -8 5 -18 10 -21 6 -3 10 1 10 9 0 8 -4 18 -10 21 -5 3
-10 -1 -10 -9z"/>
<path d="M3156 1508 c3 -4 11 -5 19 -1 21 7 19 12 -4 10 -11 0 -18 -5 -15 -9z"/>
<path d="M4660 1509 c0 -5 5 -7 10 -4 6 3 10 8 10 11 0 2 -4 4 -10 4 -5 0 -10
-5 -10 -11z"/>
<path d="M5307 1161 c3 -12 10 -21 15 -21 13 0 6 32 -9 37 -7 3 -9 -3 -6 -16z"/>
<path d="M5373 1153 c1 -17 4 -19 14 -11 7 6 13 16 13 22 0 6 -4 5 -9 -3 -7
-11 -9 -11 -14 0 -3 8 -4 4 -4 -8z"/>
<path d="M5330 1086 c0 -2 7 -7 16 -10 8 -3 12 -2 9 4 -6 10 -25 14 -25 6z"/>
<path d="M3480 1009 c-11 -8 -12 -12 -2 -16 6 -2 9 -10 5 -16 -4 -7 -1 -7 9 1
9 7 19 9 22 4 6 -10 62 -9 59 1 -2 4 -3 10 -3 13 0 4 -6 1 -13 -5 -11 -8 -18
-6 -32 9 -21 23 -24 24 -45 9z m41 -16 c12 -16 12 -17 -2 -6 -9 7 -19 10 -22
6 -4 -3 -7 -1 -7 5 0 17 16 15 31 -5z"/>
<path d="M3416 1002 c-3 -6 0 -15 8 -21 10 -9 16 -8 26 4 7 9 10 18 6 22 -3 3
-6 1 -6 -7 0 -10 -3 -10 -14 -1 -8 7 -17 8 -20 3z"/>
<path d="M4740 1051 c0 -5 5 -13 10 -16 6 -3 10 -2 10 4 0 5 -4 13 -10 16 -5
3 -10 2 -10 -4z"/>
<path d="M4697 1009 c-9 -5 -22 -7 -29 -3 -7 5 -8 3 -4 -5 5 -8 3 -11 -7 -9
-9 2 -15 -1 -14 -7 1 -5 6 -9 11 -7 4 1 13 -1 20 -6 14 -12 54 -6 74 10 12 10
11 14 -4 25 -21 15 -24 15 -47 2z m41 -7 c9 -6 5 -12 -13 -20 -15 -7 -24 -8
-20 -2 3 5 1 10 -4 10 -6 0 -11 -5 -11 -11 0 -5 -5 -7 -11 -3 -8 4 -3 12 12
20 29 16 30 16 47 6z"/>
<path d="M4581 989 c13 -10 27 -15 32 -12 13 8 -9 26 -34 28 -21 2 -21 1 2
-16z"/>
<path d="M4506 961 c-4 -5 -2 -12 3 -15 5 -4 12 -2 15 3 4 5 2 12 -3 15 -5 4
-12 2 -15 -3z"/>
<path d="M5673 1705 c0 -8 4 -12 9 -9 5 3 6 10 3 15 -9 13 -12 11 -12 -6z"/>
<path d="M2626 1558 c3 -5 10 -6 15 -3 13 9 11 12 -6 12 -8 0 -12 -4 -9 -9z"/>
<path d="M5555 1539 c-3 -4 2 -6 10 -5 21 3 28 13 10 13 -9 0 -18 -4 -20 -8z"/>
<path d="M2514 1502 c4 -3 14 -7 22 -8 9 -1 13 0 10 4 -4 3 -14 7 -22 8 -9 1
-13 0 -10 -4z"/>
<path d="M5615 1499 c-3 -4 2 -6 10 -5 21 3 28 13 10 13 -9 0 -18 -4 -20 -8z"/>
<path d="M2639 1498 c-5 -18 -6 -38 -1 -34 7 8 12 36 6 36 -2 0 -4 -1 -5 -2z"/>
<path d="M5536 1482 c-3 -5 1 -9 9 -9 8 0 12 4 9 9 -3 4 -7 8 -9 8 -2 0 -6 -4
-9 -8z"/>
<path d="M5736 1462 c-3 -5 1 -9 9 -9 8 0 12 4 9 9 -3 4 -7 8 -9 8 -2 0 -6 -4
-9 -8z"/>
<path d="M5575 1449 c-4 -6 -5 -12 -2 -15 2 -3 7 2 10 11 7 17 1 20 -8 4z"/>
<path d="M5775 1440 c-3 -5 -1 -10 4 -10 6 0 11 5 11 10 0 6 -2 10 -4 10 -3 0
-8 -4 -11 -10z"/>
<path d="M2600 1431 c0 -6 4 -13 10 -16 6 -3 7 1 4 9 -7 18 -14 21 -14 7z"/>
<path d="M2410 1419 c0 -5 5 -7 10 -4 6 3 10 8 10 11 0 2 -4 4 -10 4 -5 0 -10
-5 -10 -11z"/>
<path d="M2573 1407 c0 -7 9 -14 20 -14 11 -1 18 -1 16 0 -2 2 -11 8 -20 15
-12 9 -16 9 -16 -1z"/>
<path d="M5573 1407 c0 -8 6 -14 14 -14 9 0 10 4 2 14 -6 7 -12 13 -14 13 -1
0 -2 -6 -2 -13z"/>
<path d="M5679 1393 c-13 -16 -12 -17 4 -4 16 13 21 21 13 21 -2 0 -10 -8 -17
-17z"/>
<path d="M5715 1401 c-3 -5 -2 -12 3 -15 5 -3 9 1 9 9 0 17 -3 19 -12 6z"/>
<path d="M2373 1375 c0 -8 4 -12 9 -9 5 3 6 10 3 15 -9 13 -12 11 -12 -6z"/>
<path d="M5632 1371 c7 -9 13 -18 15 -20 1 -2 1 5 0 16 0 11 -7 20 -14 20 -10
0 -10 -4 -1 -16z"/>
<path d="M2577 1369 c7 -7 15 -10 18 -7 3 3 -2 9 -12 12 -14 6 -15 5 -6 -5z"/>
<path d="M5581 1377 c2 -1 15 -11 28 -22 l24 -20 -14 23 c-8 12 -20 22 -28 22
-8 0 -12 -1 -10 -3z"/>
<path d="M2375 1339 c-3 -4 2 -6 10 -5 21 3 28 13 10 13 -9 0 -18 -4 -20 -8z"/>
<path d="M2520 1335 c-7 -9 -11 -17 -9 -20 3 -2 10 5 17 15 14 24 10 26 -8 5z"/>
<path d="M5816 1342 c-3 -5 1 -9 9 -9 8 0 12 4 9 9 -3 4 -7 8 -9 8 -2 0 -6 -4
-9 -8z"/>
<path d="M5697 1333 c-10 -9 -9 -23 1 -23 5 0 9 7 9 15 0 17 -1 18 -10 8z"/>
<path d="M2339 1328 c-5 -18 -6 -38 -1 -34 7 8 12 36 6 36 -2 0 -4 -1 -5 -2z"/>
<path d="M2427 1319 c7 -7 15 -10 18 -7 3 3 -2 9 -12 12 -14 6 -15 5 -6 -5z"/>
<path d="M2550 1320 c0 -5 5 -10 11 -10 5 0 7 5 4 10 -3 6 -8 10 -11 10 -2 0
-4 -4 -4 -10z"/>
<path d="M5590 1320 c-9 -6 -10 -10 -3 -10 6 0 15 5 18 10 8 12 4 12 -15 0z"/>
<path d="M5464 1312 c4 -7 2 -19 -4 -27 -9 -11 -8 -14 8 -12 22 1 23 21 2 40
-10 10 -11 9 -6 -1z"/>
<path d="M5853 1305 c0 -8 4 -12 9 -9 5 3 6 10 3 15 -9 13 -12 11 -12 -6z"/>
<path d="M2579 1308 c0 -2 -2 -13 -5 -26 -3 -19 -2 -21 10 -10 8 7 10 15 5 16
-5 2 -7 8 -3 13 3 5 3 9 0 9 -3 0 -6 -1 -7 -2z"/>
<path d="M2674 1285 c0 -14 5 -26 11 -29 8 -3 10 5 7 20 -6 33 -18 38 -18 9z"/>
<path d="M5610 1280 c0 -5 5 -10 10 -10 6 0 10 5 10 10 0 6 -4 10 -10 10 -5 0
-10 -4 -10 -10z"/>
<path d="M2511 1267 c-8 -10 -7 -14 2 -14 8 0 14 6 14 14 0 7 -1 13 -2 13 -2
0 -8 -6 -14 -13z"/>
<path d="M5576 1263 c-10 -10 -7 -33 4 -33 5 0 7 7 4 15 -5 11 -2 13 10 9 9
-3 16 -4 16 -1 0 8 -28 16 -34 10z"/>
<path d="M5815 1260 c-3 -5 -1 -10 4 -10 6 0 11 5 11 10 0 6 -2 10 -4 10 -3 0
-8 -4 -11 -10z"/>
<path d="M2417 1253 c-10 -9 -9 -23 1 -23 5 0 9 7 9 15 0 17 -1 18 -10 8z"/>
<path d="M5649 1243 c-13 -16 -12 -17 4 -4 9 7 17 15 17 17 0 8 -8 3 -21 -13z"/>
<path d="M2566 1237 c3 -10 9 -15 12 -12 3 3 0 11 -7 18 -10 9 -11 8 -5 -6z"/>
<path d="M5420 1235 c-8 -9 -8 -15 -2 -15 12 0 26 19 19 26 -2 2 -10 -2 -17
-11z"/>
<path d="M5876 1233 c-6 -14 -5 -15 5 -6 7 7 10 15 7 18 -3 3 -9 -2 -12 -12z"/>
<path d="M5600 1236 c0 -2 7 -7 16 -10 8 -3 12 -2 9 4 -6 10 -25 14 -25 6z"/>
<path d="M2296 1218 c3 -5 10 -6 15 -3 13 9 11 12 -6 12 -8 0 -12 -4 -9 -9z"/>
<path d="M2480 1220 c-9 -6 -10 -10 -3 -10 6 0 15 5 18 10 8 12 4 12 -15 0z"/>
<path d="M2550 1221 c0 -6 4 -13 10 -16 6 -3 7 1 4 9 -7 18 -14 21 -14 7z"/>
<path d="M2710 1226 c0 -2 7 -7 16 -10 8 -3 12 -2 9 4 -6 10 -25 14 -25 6z"/>
<path d="M5656 1207 c3 -10 9 -15 12 -12 3 3 0 11 -7 18 -10 9 -11 8 -5 -6z"/>
<path d="M2260 1200 c-9 -6 -10 -10 -3 -10 6 0 15 5 18 10 8 12 4 12 -15 0z"/>
<path d="M2395 1201 c-3 -5 -2 -12 3 -15 5 -3 9 1 9 9 0 17 -3 19 -12 6z"/>
<path d="M2512 1205 c4 -5 3 -13 -2 -20 -7 -8 -5 -12 5 -12 8 0 11 5 8 10 -4
6 0 8 10 4 25 -9 21 0 -5 14 -13 6 -20 8 -16 4z"/>
<path d="M5410 1200 c0 -5 5 -10 11 -10 5 0 7 5 4 10 -3 6 -8 10 -11 10 -2 0
-4 -4 -4 -10z"/>
<path d="M2315 1169 c-4 -6 -5 -12 -2 -15 2 -3 7 2 10 11 7 17 1 20 -8 4z"/>
<path d="M5550 1171 c0 -7 -4 -9 -10 -6 -6 4 -7 -1 -3 -11 6 -15 7 -15 15 1 6
9 7 19 4 22 -3 4 -6 1 -6 -6z"/>
<path d="M5587 1166 c-4 -10 -1 -13 8 -9 8 3 12 9 9 14 -7 12 -11 11 -17 -5z"/>
<path d="M5651 1167 c-8 -10 -7 -14 2 -14 8 0 14 6 14 14 0 7 -1 13 -2 13 -2
0 -8 -6 -14 -13z"/>
<path d="M5693 1167 c0 -7 9 -14 20 -14 11 -1 18 -1 16 0 -2 2 -11 8 -20 15
-12 9 -16 9 -16 -1z"/>
<path d="M2562 1156 c7 -8 15 -12 17 -11 5 6 -10 25 -20 25 -5 0 -4 -6 3 -14z"/>
<path d="M2596 1155 c-9 -26 -7 -32 5 -12 6 10 9 21 6 23 -2 3 -7 -2 -11 -11z"/>
<path d="M2657 1153 c-4 -3 -7 -11 -7 -17 0 -6 5 -5 12 2 6 6 9 14 7 17 -3 3
-9 2 -12 -2z"/>
<path d="M5490 1154 c0 -2 9 -8 20 -14 11 -6 20 -7 20 -2 0 6 -9 12 -20 15
-11 3 -20 3 -20 1z"/>
<path d="M2435 1141 c-3 -5 -2 -12 3 -15 5 -3 9 1 9 9 0 17 -3 19 -12 6z"/>
<path d="M2615 1140 c-3 -6 1 -7 9 -4 18 7 21 14 7 14 -6 0 -13 -4 -16 -10z"/>
<path d="M5627 1134 c4 -11 3 -15 -5 -10 -6 3 -13 2 -16 -3 -4 -5 2 -8 11 -7
20 3 28 21 14 31 -7 4 -8 0 -4 -11z"/>
<path d="M2494 1126 c1 -8 5 -18 8 -22 4 -3 5 1 4 10 -1 8 -5 18 -8 22 -4 3
-5 -1 -4 -10z"/>
<path d="M2909 1118 c-11 -20 -10 -21 3 -11 8 7 18 10 22 6 4 -4 4 0 0 10 -8
22 -11 22 -25 -5z"/>
<path d="M2973 1126 c-3 -5 -1 -6 5 -2 5 3 12 1 14 -6 4 -12 28 -3 28 10 0 11
-40 9 -47 -2z"/>
<path d="M5659 1138 c-5 -18 -6 -38 -1 -34 7 8 12 36 6 36 -2 0 -4 -1 -5 -2z"/>
<path d="M2560 1120 c-9 -6 -10 -10 -3 -10 6 0 15 5 18 10 8 12 4 12 -15 0z"/>
<path d="M2620 1120 c-9 -6 -10 -10 -3 -10 6 0 15 5 18 10 8 12 4 12 -15 0z"/>
<path d="M5235 1120 c3 -5 8 -10 11 -10 2 0 4 5 4 10 0 6 -5 10 -11 10 -5 0
-7 -4 -4 -10z"/>
<path d="M5501 1114 c0 -11 3 -14 6 -6 3 7 2 16 -1 19 -3 4 -6 -2 -5 -13z"/>
<path d="M5535 1119 c-4 -6 -5 -12 -2 -15 2 -3 7 2 10 11 7 17 1 20 -8 4z"/>
<path d="M5148 1106 c-17 -12 -16 -14 5 -32 12 -10 19 -15 15 -10 -4 5 -4 14
2 20 15 19 -2 36 -22 22z"/>
<path d="M2630 1100 c-13 -8 -12 -10 3 -10 9 0 17 5 17 10 0 12 -1 12 -20 0z"/>
<path d="M2981 1092 c7 -11 21 -20 31 -19 22 2 31 22 9 23 -9 1 -24 5 -34 9
-17 7 -18 6 -6 -13z"/>
<path d="M5550 1101 c0 -6 4 -13 10 -16 6 -3 7 1 4 9 -7 18 -14 21 -14 7z"/>
<path d="M2660 1095 c0 -5 5 -17 10 -25 5 -8 10 -10 10 -5 0 6 -5 17 -10 25
-5 8 -10 11 -10 5z"/>
<path d="M3067 1093 c-12 -12 -7 -23 7 -17 8 3 19 -3 26 -16 11 -20 30 -19 30
2 0 6 -3 8 -7 5 -3 -4 -16 2 -28 13 -12 11 -25 17 -28 13z"/>
<path d="M5610 1090 c-9 -6 -10 -10 -3 -10 6 0 15 5 18 10 8 12 4 12 -15 0z"/>
<path d="M2519 1073 c-12 -16 -12 -17 2 -6 9 7 20 9 24 5 5 -4 5 -1 1 6 -9 16
-11 15 -27 -5z"/>
<path d="M4990 1079 c-8 -5 -10 -9 -5 -9 6 0 3 -5 -5 -10 -8 -5 -22 -7 -31 -5
-9 3 -24 -4 -34 -15 -17 -19 -17 -19 6 -14 13 4 31 7 39 8 18 1 62 44 51 50
-4 3 -13 1 -21 -5z"/>
<path d="M5437 1083 c-12 -12 -7 -21 16 -26 20 -5 20 -5 5 7 -10 7 -15 16 -11
19 3 4 4 7 1 7 -2 0 -8 -3 -11 -7z"/>
<path d="M5505 1079 c-3 -4 2 -6 10 -5 21 3 28 13 10 13 -9 0 -18 -4 -20 -8z"/>
<path d="M2710 1070 c0 -5 7 -10 16 -10 9 0 12 -5 8 -12 -4 -7 -3 -8 4 -4 16
10 15 14 -8 26 -14 7 -20 7 -20 0z"/>
<path d="M5476 1067 c3 -10 9 -15 12 -12 3 3 0 11 -7 18 -10 9 -11 8 -5 -6z"/>
<path d="M5633 1065 c0 -8 4 -12 9 -9 5 3 6 10 3 15 -9 13 -12 11 -12 -6z"/>
<path d="M2336 1058 c3 -5 10 -6 15 -3 13 9 11 12 -6 12 -8 0 -12 -4 -9 -9z"/>
<path d="M2375 1060 c-3 -5 -1 -10 4 -10 6 0 11 5 11 10 0 6 -2 10 -4 10 -3 0
-8 -4 -11 -10z"/>
<path d="M2600 1055 c-7 -9 -11 -17 -9 -20 3 -2 10 5 17 15 14 24 10 26 -8 5z"/>
<path d="M5590 1066 c0 -2 7 -7 16 -10 8 -3 12 -2 9 4 -6 10 -25 14 -25 6z"/>
<path d="M5665 1060 c-3 -6 1 -7 9 -4 18 7 21 14 7 14 -6 0 -13 -4 -16 -10z"/>
<path d="M5707 1059 c7 -7 15 -10 18 -7 3 3 -2 9 -12 12 -14 6 -15 5 -6 -5z"/>
<path d="M2571 1044 c0 -11 3 -14 6 -6 3 7 2 16 -1 19 -3 4 -6 -2 -5 -13z"/>
<path d="M2500 1040 c-9 -6 -10 -10 -3 -10 6 0 15 5 18 10 8 12 4 12 -15 0z"/>
<path d="M2616 1033 c-6 -14 -5 -15 5 -6 7 7 10 15 7 18 -3 3 -9 -2 -12 -12z"/>
<path d="M2690 1040 c0 -5 5 -10 10 -10 6 0 10 5 10 10 0 6 -4 10 -10 10 -5 0
-10 -4 -10 -10z"/>
<path d="M2755 1041 c-3 -5 0 -13 6 -17 8 -5 9 -3 4 6 -6 9 -1 10 16 5 19 -5
21 -4 9 4 -19 13 -27 14 -35 2z"/>
<path d="M2825 1040 c3 -5 8 -10 11 -10 2 0 4 5 4 10 0 6 -5 10 -11 10 -5 0
-7 -4 -4 -10z"/>
<path d="M3260 1035 c-14 -16 -3 -20 19 -6 8 5 9 11 3 15 -5 3 -15 -1 -22 -9z"/>
<path d="M5380 1040 c-9 -6 -10 -10 -3 -10 6 0 15 5 18 10 8 12 4 12 -15 0z"/>
<path d="M5410 1040 c0 -5 5 -10 10 -10 6 0 10 5 10 10 0 6 -4 10 -10 10 -5 0
-10 -4 -10 -10z"/>
<path d="M5579 1033 c-13 -16 -12 -17 4 -4 9 7 17 15 17 17 0 8 -8 3 -21 -13z"/>
<path d="M5473 1025 c0 -8 4 -15 9 -15 4 0 8 4 8 9 0 6 -4 12 -8 15 -5 3 -9
-1 -9 -9z"/>
<path d="M5675 1031 c-3 -5 -2 -12 3 -15 5 -3 9 1 9 9 0 17 -3 19 -12 6z"/>
<path d="M2330 1019 c0 -5 5 -7 10 -4 6 3 10 8 10 11 0 2 -4 4 -10 4 -5 0 -10
-5 -10 -11z"/>
<path d="M2375 1020 c3 -5 8 -10 11 -10 2 0 4 5 4 10 0 6 -5 10 -11 10 -5 0
-7 -4 -4 -10z"/>
<path d="M2735 1023 c3 -3 -3 -11 -12 -18 -13 -9 -13 -14 -3 -20 9 -6 11 -4 5
5 -6 10 -4 12 7 7 16 -6 20 17 5 28 -4 3 -5 2 -2 -2z"/>
<path d="M2805 1020 c-6 -9 -4 -11 5 -5 10 6 12 4 7 -9 -5 -11 -3 -15 5 -10 8
5 9 2 5 -9 -9 -25 0 -21 14 6 6 12 8 19 4 15 -4 -4 -13 0 -20 9 -9 13 -14 13
-20 3z"/>
<path d="M2573 1007 c0 -9 14 -13 43 -13 23 1 40 4 37 9 -2 4 -16 5 -31 2 -14
-2 -31 0 -37 5 -8 6 -12 5 -12 -3z"/>
<path d="M2950 1010 c0 -5 5 -10 11 -10 5 0 7 5 4 10 -3 6 -8 10 -11 10 -2 0
-4 -4 -4 -10z"/>
<path d="M3725 1011 c3 -5 1 -12 -5 -16 -16 -10 -12 -23 7 -21 21 3 26 33 6
40 -7 3 -11 2 -8 -3z"/>
<path d="M5530 1005 c-7 -9 -11 -17 -9 -20 3 -2 10 5 17 15 14 24 10 26 -8 5z"/>
<path d="M2479 993 c-13 -16 -12 -17 4 -4 16 13 21 21 13 21 -2 0 -10 -8 -17
-17z"/>
<path d="M2510 1000 c0 -4 7 -7 15 -6 23 3 26 12 5 13 -11 1 -20 -2 -20 -7z"/>
<path d="M3670 1001 c0 -7 -4 -10 -8 -7 -5 3 -9 -1 -9 -9 0 -8 8 -13 18 -12
27 4 31 13 14 27 -11 9 -15 9 -15 1z"/>
<path d="M3877 984 c-17 -22 -15 -50 2 -40 4 3 12 -4 19 -15 13 -21 3 -26 -16
-7 -7 7 -12 9 -12 4 0 -17 27 -35 37 -25 16 16 64 18 70 3 4 -10 10 -11 25 -3
14 7 23 7 32 -1 17 -13 29 11 19 38 -6 15 -5 15 10 3 15 -12 20 -11 35 3 10 9
22 13 25 9 4 -3 7 -1 7 5 0 11 -11 15 -27 10 -5 -2 -7 -7 -5 -11 1 -5 -2 -6
-7 -2 -6 3 -8 12 -5 19 3 8 1 17 -5 21 -6 3 -14 -1 -17 -9 -3 -9 -11 -13 -17
-9 -18 11 -51 11 -64 1 -8 -7 -13 -7 -13 -1 0 5 -7 10 -15 10 -8 0 -15 -5 -15
-10 0 -6 -10 -1 -22 10 l-23 21 -18 -24z m42 -7 c11 -15 48 -17 68 -4 6 4 15
3 18 -3 5 -8 11 -8 20 0 10 8 15 8 20 0 9 -14 0 -23 -25 -25 -11 -1 -17 3 -13
9 3 6 3 8 -1 4 -15 -13 -11 -21 13 -25 28 -4 37 -10 28 -19 -4 -4 -13 -2 -21
5 -11 9 -15 9 -18 0 -3 -8 -11 -10 -24 -4 -10 4 -31 8 -47 7 -17 0 -31 6 -38
19 -5 11 -14 17 -20 14 -5 -4 -9 -1 -9 5 0 7 7 10 15 7 8 -4 17 -2 20 3 3 4
-1 11 -7 13 -8 4 -9 6 -2 6 6 1 17 -5 23 -12z m166 -36 c-6 -5 -25 10 -25 20
0 5 6 4 14 -3 8 -7 12 -15 11 -17z"/>
<path d="M3906 962 c-2 -4 -1 -14 4 -22 7 -11 11 -11 23 -1 12 9 16 9 20 -1 4
-10 6 -9 6 1 1 11 5 10 17 -5 8 -10 13 -13 9 -6 -4 7 -1 21 7 30 11 15 11 16
-2 6 -17 -12 -49 -12 -67 -1 -6 4 -14 4 -17 -1z"/>
<path d="M5210 1005 c0 -8 29 -12 39 -5 9 5 4 8 -13 8 -14 0 -26 -2 -26 -3z"/>
<path d="M5350 1002 c0 -6 9 -12 20 -15 11 -3 20 -3 20 -1 0 2 -9 8 -20 14
-11 6 -20 7 -20 2z"/>
<path d="M5433 1000 c-13 -5 -23 -11 -23 -14 0 -7 40 6 46 15 6 10 6 10 -23
-1z"/>
<path d="M5557 992 c-15 -16 -15 -19 -2 -19 8 0 13 3 10 5 -3 3 0 11 6 19 17
20 5 16 -14 -5z"/>
<path d="M5830 1000 c0 -5 5 -10 11 -10 5 0 7 5 4 10 -3 6 -8 10 -11 10 -2 0
-4 -4 -4 -10z"/>
<path d="M3797 993 c-4 -3 -7 -11 -7 -16 0 -6 3 -7 7 -4 3 4 13 1 21 -6 13
-10 14 -9 3 11 -13 24 -14 25 -24 15z"/>
<path d="M4334 992 c3 -3 19 -6 36 -7 17 -1 28 1 24 4 -3 3 -19 6 -35 7 -17 1
-28 -1 -25 -4z"/>
<path d="M5317 989 c7 -7 15 -10 18 -7 3 3 -2 9 -12 12 -14 6 -15 5 -6 -5z"/>
<path d="M5473 985 c0 -8 4 -12 9 -9 5 3 6 10 3 15 -9 13 -12 11 -12 -6z"/>
<path d="M2896 977 c3 -10 9 -15 12 -12 3 3 0 11 -7 18 -10 9 -11 8 -5 -6z"/>
<path d="M2925 964 c-13 -21 -13 -23 0 -18 8 4 15 11 15 18 0 6 9 12 19 13 14
1 19 -4 16 -17 -2 -11 2 -23 8 -26 7 -4 8 -3 4 1 -4 5 3 15 15 22 l23 14 -23
-6 c-15 -5 -22 -2 -20 6 5 23 -41 18 -57 -7z"/>
<path d="M3031 980 c3 -30 -1 -41 -13 -34 -7 4 -8 3 -4 -4 10 -16 14 -15 25 6
6 12 6 23 0 33 -8 12 -10 12 -8 -1z"/>
<path d="M3100 979 c0 -5 5 -7 10 -4 6 3 10 8 10 11 0 2 -4 4 -10 4 -5 0 -10
-5 -10 -11z"/>
<path d="M5174 978 c-3 -5 -3 -12 0 -15 3 -4 6 -2 6 3 0 5 10 10 23 11 21 2
21 1 3 -13 -11 -8 -15 -14 -9 -14 10 0 39 29 32 31 -18 6 -51 4 -55 -3z"/>
<path d="M5254 982 c3 -5 1 -12 -6 -14 -8 -3 -9 -6 -1 -11 6 -4 13 0 17 8 3 8
0 17 -6 21 -6 4 -8 3 -4 -4z"/>
<path d="M5585 980 c-3 -6 1 -7 9 -4 18 7 21 14 7 14 -6 0 -13 -4 -16 -10z"/>
<path d="M5633 975 c0 -8 4 -12 9 -9 5 3 6 10 3 15 -9 13 -12 11 -12 -6z"/>
<path d="M5730 980 c0 -5 5 -10 11 -10 5 0 7 5 4 10 -3 6 -8 10 -11 10 -2 0
-4 -4 -4 -10z"/>
<path d="M5775 980 c3 -5 8 -10 11 -10 2 0 4 5 4 10 0 6 -5 10 -11 10 -5 0 -7
-4 -4 -10z"/>
<path d="M2788 973 c6 -2 10 -8 8 -12 -3 -4 5 -8 16 -8 20 -2 20 -1 2 12 -11
8 -23 14 -29 14 -5 0 -4 -3 3 -6z"/>
<path d="M3075 960 c-4 -11 -11 -17 -17 -14 -6 4 -8 2 -5 -4 4 -5 15 -9 25 -8
9 2 25 -8 34 -23 10 -14 18 -22 18 -18 0 17 -33 56 -42 51 -6 -4 -8 2 -3 15 3
11 4 21 1 21 -2 0 -8 -9 -11 -20z"/>
<path d="M5030 965 c0 -8 4 -15 10 -15 5 0 7 7 4 15 -4 8 -8 15 -10 15 -2 0
-4 -7 -4 -15z"/>
<path d="M5055 970 c3 -5 8 -10 11 -10 2 0 4 5 4 10 0 6 -5 10 -11 10 -5 0 -7
-4 -4 -10z"/>
<path d="M5438 973 c7 -3 16 -2 19 1 4 3 -2 6 -13 5 -11 0 -14 -3 -6 -6z"/>
<path d="M2693 953 c0 -9 4 -10 14 -2 7 6 13 12 13 14 0 1 -6 2 -13 2 -8 0
-14 -6 -14 -14z"/>
<path d="M3116 962 c-2 -4 0 -14 6 -22 8 -12 9 -11 4 3 -5 15 -2 17 17 12 17
-5 19 -4 7 4 -18 13 -27 14 -34 3z"/>
<path d="M5080 956 c0 -9 -4 -15 -8 -12 -5 3 -16 -4 -25 -15 -9 -10 -12 -19
-7 -19 6 0 13 7 16 15 4 8 10 12 15 9 11 -6 24 24 15 33 -3 4 -6 -1 -6 -11z"/>
<path d="M5270 950 c-6 -11 -8 -20 -6 -20 3 0 10 9 16 20 6 11 8 20 6 20 -3 0
-10 -9 -16 -20z"/>
<path d="M5326 962 c-3 -5 1 -9 9 -9 8 0 15 4 15 9 0 4 -4 8 -9 8 -6 0 -12 -4
-15 -8z"/>
<path d="M2593 945 c0 -8 4 -12 9 -9 5 3 6 10 3 15 -9 13 -12 11 -12 -6z"/>
<path d="M2629 943 c-13 -16 -12 -17 4 -4 16 13 21 21 13 21 -2 0 -10 -8 -17
-17z"/>
<path d="M5150 951 c0 -7 -5 -9 -12 -5 -7 5 -8 3 -3 -5 5 -9 10 -10 18 -2 6 6
8 14 4 18 -4 3 -7 1 -7 -6z"/>
<path d="M2455 940 c-3 -5 -1 -10 4 -10 6 0 11 5 11 10 0 6 -2 10 -4 10 -3 0
-8 -4 -11 -10z"/>
<path d="M2755 942 c3 -3 -1 -12 -7 -21 -8 -10 -4 -9 10 3 26 23 26 23 7 23
-8 0 -13 -3 -10 -5z"/>
<path d="M3405 940 c-3 -5 -1 -10 4 -10 6 0 11 5 11 10 0 6 -2 10 -4 10 -3 0
-8 -4 -11 -10z"/>
<path d="M5234 936 c1 -8 5 -18 8 -22 4 -3 5 1 4 10 -1 8 -5 18 -8 22 -4 3 -5
-1 -4 -10z"/>
<path d="M3250 925 c0 -8 4 -15 10 -15 5 0 7 7 4 15 -4 8 -8 15 -10 15 -2 0
-4 -7 -4 -15z"/>
<path d="M4995 925 c-25 -12 -26 -14 -5 -9 14 4 29 10 35 15 12 12 5 11 -30
-6z"/>
<path d="M5340 929 c0 -5 -4 -7 -10 -4 -14 9 -12 -1 3 -13 10 -8 13 -6 14 9 1
10 0 19 -3 19 -2 0 -4 -5 -4 -11z"/>
<path d="M5373 926 c0 -14 50 -17 63 -4 4 4 -4 5 -16 3 -13 -3 -29 0 -35 5 -8
7 -12 5 -12 -4z"/>
<path d="M2839 925 c-8 -30 4 -55 25 -55 6 0 3 5 -6 10 -10 6 -15 19 -13 30 3
17 -2 30 -6 15z"/>
<path d="M2946 922 c-2 -4 4 -8 14 -8 10 0 16 4 14 8 -3 4 -9 8 -14 8 -5 0
-11 -4 -14 -8z"/>
<path d="M3036 922 c-3 -4 4 -9 15 -9 23 -2 25 3 4 10 -8 4 -16 3 -19 -1z"/>
<path d="M3140 926 c0 -2 9 -6 20 -9 11 -3 18 -1 14 4 -5 9 -34 13 -34 5z"/>
<path d="M3301 920 c-9 -5 -4 -7 13 -7 29 0 32 2 13 10 -8 3 -20 2 -26 -3z"/>
<path d="M4821 920 c-9 -5 -4 -7 13 -7 29 0 32 2 13 10 -8 3 -20 2 -26 -3z"/>
<path d="M4915 921 c-3 -6 5 -15 17 -21 21 -10 21 -10 6 3 -10 8 -15 17 -11
20 3 4 4 7 0 7 -3 0 -8 -4 -12 -9z"/>
<path d="M5090 920 c0 -4 7 -7 15 -6 23 3 26 12 5 13 -11 1 -20 -2 -20 -7z"/>
<path d="M5156 922 c-3 -5 1 -9 9 -9 8 0 15 4 15 9 0 4 -4 8 -9 8 -6 0 -12 -4
-15 -8z"/>
<path d="M5285 920 c-3 -6 1 -7 9 -4 18 7 21 14 7 14 -6 0 -13 -4 -16 -10z"/>
<path d="M5657 915 c-4 -8 -3 -16 1 -19 4 -3 9 4 9 15 2 23 -3 25 -10 4z"/>
<path d="M2673 905 c0 -8 4 -12 9 -9 5 3 6 10 3 15 -9 13 -12 11 -12 -6z"/>
<path d="M3388 913 c7 -3 16 -2 19 1 4 3 -2 6 -13 5 -11 0 -14 -3 -6 -6z"/>
<path d="M3590 909 c0 -5 5 -7 10 -4 6 3 10 1 10 -4 0 -6 5 -11 11 -11 8 0 8
5 -1 15 -14 17 -30 20 -30 4z"/>
<path d="M4070 905 c-7 -9 -11 -17 -9 -20 3 -2 10 5 17 15 14 24 10 26 -8 5z"/>
<path d="M2784 902 c4 -3 14 -7 22 -8 9 -1 13 0 10 4 -4 3 -14 7 -22 8 -9 1
-13 0 -10 -4z"/>
<path d="M2882 883 c25 -27 39 -32 15 -5 -10 10 -15 21 -12 24 3 2 -2 5 -10 5
-12 0 -10 -6 7 -24z"/>
<path d="M2907 893 c3 -7 6 -13 8 -13 2 0 5 6 8 13 3 8 -1 14 -8 14 -7 0 -11
-6 -8 -14z"/>
<path d="M2995 901 c6 -11 4 -13 -7 -8 -12 4 -14 1 -10 -16 3 -12 7 -16 10 -9
2 7 7 10 12 7 11 -7 7 22 -5 32 -4 5 -5 2 0 -6z"/>
<path d="M3075 901 c-9 -15 15 -25 28 -12 9 9 7 10 -7 5 -13 -5 -17 -4 -12 4
4 7 5 12 2 12 -3 0 -7 -4 -11 -9z"/>
<path d="M3350 900 c0 -5 5 -10 10 -10 6 0 10 5 10 10 0 6 -4 10 -10 10 -5 0
-10 -4 -10 -10z"/>
<path d="M4180 890 c-6 -11 -7 -20 -2 -20 6 0 12 9 15 20 3 11 3 20 1 20 -2 0
-8 -9 -14 -20z"/>
<path d="M4756 893 c-6 -14 -5 -15 5 -6 7 7 10 15 7 18 -3 3 -9 -2 -12 -12z"/>
<path d="M4870 901 c0 -6 4 -13 10 -16 6 -3 7 1 4 9 -7 18 -14 21 -14 7z"/>
<path d="M5055 901 c-9 -15 15 -25 28 -12 9 9 7 10 -7 5 -13 -5 -17 -4 -12 4
4 7 5 12 2 12 -3 0 -7 -4 -11 -9z"/>
<path d="M5124 899 c-3 -6 0 -17 8 -25 13 -13 15 -13 15 0 0 8 -5 12 -10 9 -6
-4 -8 0 -4 10 7 19 2 23 -9 6z"/>
<path d="M5193 895 c0 -8 4 -12 9 -9 4 3 8 9 8 15 0 5 -4 9 -8 9 -5 0 -9 -7
-9 -15z"/>
<path d="M5311 893 c7 -12 15 -20 18 -17 3 2 -3 12 -13 22 -17 16 -18 16 -5
-5z"/>
<path d="M5615 900 c3 -5 8 -10 11 -10 2 0 4 5 4 10 0 6 -5 10 -11 10 -5 0 -7
-4 -4 -10z"/>
<path d="M2735 889 c-4 -6 -5 -12 -2 -15 2 -3 7 2 10 11 7 17 1 20 -8 4z"/>
<path d="M2939 898 c-5 -18 -6 -38 -1 -34 7 8 12 36 6 36 -2 0 -4 -1 -5 -2z"/>
<path d="M3160 895 c0 -5 5 -17 10 -25 5 -8 10 -10 10 -5 0 6 -5 17 -10 25 -5
8 -10 11 -10 5z"/>
<path d="M3268 893 c7 -3 16 -2 19 1 4 3 -2 6 -13 5 -11 0 -14 -3 -6 -6z"/>
<path d="M3306 883 c-6 -14 -5 -15 5 -6 7 7 10 15 7 18 -3 3 -9 -2 -12 -12z"/>
<path d="M3750 890 c0 -5 7 -7 15 -4 8 4 15 8 15 10 0 2 -7 4 -15 4 -8 0 -15
-4 -15 -10z"/>
<path d="M3870 891 c0 -6 4 -13 10 -16 6 -3 7 1 4 9 -7 18 -14 21 -14 7z"/>
<path d="M3922 893 c-13 -5 -7 -23 9 -23 6 0 8 4 5 9 -4 5 0 12 6 14 7 3 9 5
3 5 -5 0 -16 -2 -23 -5z"/>
<path d="M4086 885 c-3 -8 -1 -15 4 -15 6 0 10 7 10 15 0 8 -2 15 -4 15 -2 0
-6 -7 -10 -15z"/>
<path d="M4115 890 c3 -5 8 -10 11 -10 2 0 4 5 4 10 0 6 -5 10 -11 10 -5 0 -7
-4 -4 -10z"/>
<path d="M4464 889 c1 -7 10 -13 19 -15 9 -1 15 2 11 7 -3 5 -9 7 -14 4 -4 -3
-11 0 -13 5 -3 6 -4 5 -3 -1z"/>
<path d="M4524 888 c3 -15 26 -23 26 -8 0 6 -4 9 -9 6 -5 -4 -12 -1 -14 4 -3
6 -4 5 -3 -2z"/>
<path d="M4666 881 c4 -17 3 -21 -6 -16 -9 6 -11 4 -5 -4 5 -9 11 -9 17 -3 7
7 6 16 -1 29 -11 16 -11 15 -5 -6z"/>
<path d="M4986 885 c-9 -26 -7 -32 5 -12 6 10 9 21 6 23 -2 3 -7 -2 -11 -11z"/>
<path d="M5374 886 c1 -8 5 -18 8 -22 4 -3 5 1 4 10 -1 8 -5 18 -8 22 -4 3 -5
-1 -4 -10z"/>
<path d="M2500 880 c-9 -6 -10 -10 -3 -10 6 0 15 5 18 10 8 12 4 12 -15 0z"/>
<path d="M2546 882 c-3 -5 1 -9 9 -9 8 0 12 4 9 9 -3 4 -7 8 -9 8 -2 0 -6 -4
-9 -8z"/>
<path d="M2754 878 c-4 -7 -4 -10 1 -6 4 4 15 2 24 -5 14 -11 14 -10 2 6 -16
20 -18 21 -27 5z"/>
<path d="M3397 870 c10 -11 19 -20 21 -20 1 0 -2 9 -8 20 -6 11 -15 20 -20 20
-6 0 -2 -9 7 -20z"/>
<path d="M3476 878 c3 -4 0 -8 -7 -8 -7 0 -9 -3 -6 -6 4 -4 13 -2 20 4 8 7 17
9 20 5 4 -3 7 -1 7 5 0 6 -9 10 -19 9 -11 0 -17 -5 -15 -9z"/>
<path d="M3652 876 c7 -8 15 -12 17 -11 5 6 -10 25 -20 25 -5 0 -4 -6 3 -14z"/>
<path d="M3830 880 c0 -5 7 -10 16 -10 9 0 12 -5 8 -12 -4 -7 -3 -8 4 -4 16
10 15 14 -8 26 -14 7 -20 7 -20 0z"/>
<path d="M4016 875 c4 -8 8 -15 10 -15 2 0 4 7 4 15 0 8 -4 15 -10 15 -5 0 -7
-7 -4 -15z"/>
<path d="M4140 880 c0 -5 5 -10 11 -10 5 0 7 5 4 10 -3 6 -8 10 -11 10 -2 0
-4 -4 -4 -10z"/>
<path d="M4220 874 c0 -8 -4 -13 -9 -9 -5 3 -12 1 -15 -4 -4 -5 1 -8 10 -7 19
3 41 36 24 36 -5 0 -10 -7 -10 -16z"/>
<path d="M4410 880 c0 -5 5 -10 10 -10 6 0 10 5 10 10 0 6 -4 10 -10 10 -5 0
-10 -4 -10 -10z"/>
<path d="M4596 875 c-11 -8 -16 -15 -10 -15 5 0 18 7 28 15 11 8 16 15 10 15
-5 0 -18 -7 -28 -15z"/>
<path d="M4916 882 c-3 -5 1 -9 9 -9 8 0 12 4 9 9 -3 4 -7 8 -9 8 -2 0 -6 -4
-9 -8z"/>
<path d="M5577 875 c-4 -8 -3 -16 1 -19 4 -3 9 4 9 15 2 23 -3 25 -10 4z"/>
<path d="M5910 879 c0 -5 5 -7 10 -4 6 3 10 8 10 11 0 2 -4 4 -10 4 -5 0 -10
-5 -10 -11z"/>
<path d="M3270 876 c0 -2 7 -9 15 -16 13 -11 14 -10 9 4 -5 14 -24 23 -24 12z"/>
<path d="M3992 866 c7 -8 15 -12 17 -11 5 6 -10 25 -20 25 -5 0 -4 -6 3 -14z"/>
<path d="M4254 869 c1 -7 10 -13 19 -15 9 -1 15 2 11 7 -3 5 -9 7 -14 4 -4 -3
-11 0 -13 5 -3 6 -4 5 -3 -1z"/>
<path d="M4790 870 c0 -5 7 -7 15 -4 8 4 15 8 15 10 0 2 -7 4 -15 4 -8 0 -15
-4 -15 -10z"/>
<path d="M3025 860 c-3 -6 1 -7 9 -4 18 7 21 14 7 14 -6 0 -13 -4 -16 -10z"/>
<path d="M3226 863 c5 -4 10 -25 9 -46 -1 -21 1 -40 5 -42 3 -2 6 17 5 42 0
32 -5 48 -15 51 -10 2 -11 0 -4 -5z"/>
<path d="M3506 845 c-9 -14 -15 -25 -13 -25 2 0 13 11 25 25 12 14 18 25 13
25 -5 0 -16 -11 -25 -25z"/>
<path d="M3590 860 c8 -5 20 -10 25 -10 6 0 3 5 -5 10 -8 5 -19 10 -25 10 -5
0 -3 -5 5 -10z"/>
<path d="M3635 860 c-3 -5 -1 -10 4 -10 6 0 11 5 11 10 0 6 -2 10 -4 10 -3 0
-8 -4 -11 -10z"/>
<path d="M3695 859 c-4 -6 -5 -12 -2 -15 2 -3 7 2 10 11 7 17 1 20 -8 4z"/>
<path d="M3724 854 c-18 -14 -18 -15 4 -4 12 6 22 13 22 15 0 8 -5 6 -26 -11z"/>
<path d="M3768 863 c6 -2 9 -10 6 -15 -4 -7 -2 -8 5 -4 13 9 5 26 -12 25 -9 0
-8 -2 1 -6z"/>
<path d="M3896 862 c-2 -4 7 -18 20 -31 19 -18 23 -19 17 -6 -5 14 -3 16 8 10
8 -5 11 -5 6 1 -5 5 -13 10 -18 10 -5 1 -14 2 -20 3 -5 0 -7 6 -4 11 3 6 4 10
1 10 -3 0 -7 -3 -10 -8z"/>
<path d="M3950 860 c0 -5 5 -10 10 -10 6 0 10 5 10 10 0 6 -4 10 -10 10 -5 0
-10 -4 -10 -10z"/>
<path d="M4055 859 c-4 -6 -5 -12 -2 -15 2 -3 7 2 10 11 7 17 1 20 -8 4z"/>
<path d="M4110 861 c0 -5 8 -15 18 -22 15 -12 16 -12 5 2 -7 9 -10 19 -6 22 3
4 1 7 -5 7 -7 0 -12 -4 -12 -9z"/>
<path d="M4375 860 c-3 -6 1 -7 9 -4 18 7 21 14 7 14 -6 0 -13 -4 -16 -10z"/>
<path d="M4456 857 c3 -10 9 -15 12 -12 3 3 0 11 -7 18 -10 9 -11 8 -5 -6z"/>
<path d="M4510 860 c0 -6 7 -10 15 -10 8 0 15 2 15 4 0 2 -7 6 -15 10 -8 3
-15 1 -15 -4z"/>
<path d="M4750 865 c0 -5 5 -17 10 -25 5 -8 10 -10 10 -5 0 6 -5 17 -10 25 -5
8 -10 11 -10 5z"/>
<path d="M5185 859 c-3 -4 2 -6 10 -5 21 3 28 13 10 13 -9 0 -18 -4 -20 -8z"/>
<path d="M5433 855 c0 -8 4 -12 9 -9 5 3 6 10 3 15 -9 13 -12 11 -12 -6z"/>
<path d="M5490 859 c0 -5 5 -7 10 -4 6 3 10 8 10 11 0 2 -4 4 -10 4 -5 0 -10
-5 -10 -11z"/>
<path d="M5535 860 c3 -5 8 -10 11 -10 2 0 4 5 4 10 0 6 -5 10 -11 10 -5 0 -7
-4 -4 -10z"/>
<path d="M3049 843 c-13 -16 -12 -17 4 -4 16 13 21 21 13 21 -2 0 -10 -8 -17
-17z"/>
<path d="M3130 850 c-9 -6 -10 -10 -3 -10 6 0 15 5 18 10 8 12 4 12 -15 0z"/>
<path d="M3340 850 c0 -5 -6 -7 -14 -4 -8 3 -17 0 -22 -7 -4 -8 -3 -10 5 -5 6
4 17 3 24 -3 10 -7 13 -5 14 10 1 10 0 19 -3 19 -2 0 -4 -4 -4 -10z"/>
<path d="M4420 856 c0 -2 7 -7 16 -10 8 -3 12 -2 9 4 -6 10 -25 14 -25 6z"/>
<path d="M4482 840 c-15 -25 -15 -30 0 -30 6 0 8 3 5 7 -4 3 -2 12 5 20 6 7 9
15 7 18 -3 2 -10 -5 -17 -15z"/>
<path d="M4851 844 c0 -11 3 -14 6 -6 3 7 2 16 -1 19 -3 4 -6 -2 -5 -13z"/>
<path d="M4918 836 c-13 -18 -14 -23 -2 -23 8 0 12 3 9 5 -3 3 0 11 7 19 6 7
9 15 7 17 -2 2 -12 -6 -21 -18z"/>
<path d="M5010 856 c0 -2 8 -10 18 -17 15 -13 16 -12 3 4 -13 16 -21 21 -21
13z"/>
<path d="M5103 844 c9 -11 15 -24 12 -27 -3 -4 -2 -5 2 -2 4 3 8 13 9 21 1 9
0 13 -3 10 -4 -3 -13 0 -22 6 -12 10 -12 7 2 -8z"/>
<path d="M5256 847 c3 -10 9 -15 12 -12 3 3 0 11 -7 18 -10 9 -11 8 -5 -6z"/>
<path d="M2686 838 c3 -5 10 -6 15 -3 13 9 11 12 -6 12 -8 0 -12 -4 -9 -9z"/>
<path d="M2801 836 c-9 -11 -9 -16 1 -22 7 -4 10 -4 6 1 -4 4 -3 14 3 22 6 7
9 13 6 13 -2 0 -10 -6 -16 -14z"/>
<path d="M2835 841 c-3 -5 -2 -12 3 -15 5 -3 9 1 9 9 0 17 -3 19 -12 6z"/>
<path d="M3087 839 c7 -7 15 -10 18 -7 3 3 -2 9 -12 12 -14 6 -15 5 -6 -5z"/>
<path d="M3157 832 c-15 -16 -15 -19 -2 -19 8 0 13 3 10 5 -3 3 0 11 6 19 17
20 5 16 -14 -5z"/>
<path d="M3544 838 c9 -5 23 -5 32 0 12 6 7 9 -16 9 -23 0 -28 -3 -16 -9z"/>
<path d="M3671 833 c7 -12 15 -20 18 -17 3 2 -3 12 -13 22 -17 16 -18 16 -5
-5z"/>
<path d="M3974 838 c-5 -7 -3 -8 6 -3 9 6 12 4 8 -7 -4 -8 0 -15 7 -15 10 0
11 5 4 19 -11 21 -15 22 -25 6z"/>
<path d="M4027 831 c-4 -17 -3 -21 5 -13 5 5 8 16 6 23 -3 8 -7 3 -11 -10z"/>
<path d="M4070 846 c0 -2 9 -6 20 -9 11 -3 18 -1 14 4 -5 9 -34 13 -34 5z"/>
<path d="M4226 842 c-2 -4 4 -8 14 -8 10 0 16 4 14 8 -3 4 -9 8 -14 8 -5 0
-11 -4 -14 -8z"/>
<path d="M4345 839 c-4 -6 -4 -13 -1 -16 3 -4 6 -1 6 6 0 7 5 9 12 5 7 -4 8
-3 4 4 -9 15 -13 15 -21 1z"/>
<path d="M4583 839 c9 -6 15 -14 12 -20 -4 -5 -1 -9 4 -9 6 0 11 4 11 8 0 12
-22 32 -34 32 -6 0 -3 -5 7 -11z"/>
<path d="M4635 840 c3 -5 8 -10 11 -10 2 0 4 5 4 10 0 6 -5 10 -11 10 -5 0 -7
-4 -4 -10z"/>
<path d="M4875 842 c3 -3 0 -10 -5 -17 -7 -8 -5 -12 5 -12 8 0 13 3 10 5 -3 3
0 10 5 17 7 8 5 12 -5 12 -8 0 -13 -3 -10 -5z"/>
<path d="M4989 837 c6 -8 9 -16 6 -19 -3 -2 2 -5 10 -5 13 0 13 3 -2 19 -19
21 -31 25 -14 5z"/>
<path d="M5233 835 c0 -8 4 -12 9 -9 5 3 6 10 3 15 -9 13 -12 11 -12 -6z"/>
<path d="M5639 833 c-13 -17 -13 -17 6 -3 11 8 22 16 24 17 2 2 0 3 -6 3 -6 0
-17 -8 -24 -17z"/>
<path d="M3269 823 c-13 -16 -12 -17 4 -4 16 13 21 21 13 21 -2 0 -10 -8 -17
-17z"/>
<path d="M4146 823 c-6 -14 -5 -15 5 -6 7 7 10 15 7 18 -3 3 -9 -2 -12 -12z"/>
<path d="M3185 819 c-3 -4 2 -6 10 -5 21 3 28 13 10 13 -9 0 -18 -4 -20 -8z"/>
<path d="M3400 815 c-7 -9 -11 -17 -9 -20 3 -2 10 5 17 15 14 24 10 26 -8 5z"/>
<path d="M3430 826 c0 -2 7 -7 16 -10 8 -3 12 -2 9 4 -6 10 -25 14 -25 6z"/>
<path d="M3628 823 c7 -3 16 -2 19 1 4 3 -2 6 -13 5 -11 0 -14 -3 -6 -6z"/>
<path d="M4668 819 c6 -9 8 -20 4 -25 -4 -5 -3 -6 2 -2 5 4 14 3 21 -2 8 -7
12 -5 12 5 0 8 -3 13 -5 10 -3 -3 -15 3 -26 12 -15 14 -18 14 -8 2z"/>
<path d="M4946 822 c-2 -4 4 -8 14 -8 10 0 16 4 14 8 -3 4 -9 8 -14 8 -5 0
-11 -4 -14 -8z"/>
<path d="M5480 820 c-12 -7 -10 -9 7 -7 12 0 19 5 17 9 -6 10 -6 10 -24 -2z"/>
<path d="M5536 822 c-3 -5 1 -9 9 -9 8 0 12 4 9 9 -3 4 -7 8 -9 8 -2 0 -6 -4
-9 -8z"/>
<path d="M2675 811 c-3 -5 -2 -12 3 -15 5 -3 9 1 9 9 0 17 -3 19 -12 6z"/>
<path d="M3119 818 c-5 -18 -6 -38 -1 -34 7 8 12 36 6 36 -2 0 -4 -1 -5 -2z"/>
<path d="M4115 809 c-4 -6 -5 -12 -2 -15 2 -3 7 2 10 11 7 17 1 20 -8 4z"/>
<path d="M4221 804 c0 -11 3 -14 6 -6 3 7 2 16 -1 19 -3 4 -6 -2 -5 -13z"/>
<path d="M4793 807 c0 -7 11 -13 23 -13 20 0 25 11 6 11 -4 0 -12 3 -18 7 -6
4 -11 1 -11 -5z"/>
<path d="M5034 806 c1 -8 5 -18 8 -22 4 -3 5 1 4 10 -1 8 -5 18 -8 22 -4 3 -5
-1 -4 -10z"/>
<path d="M3416 793 c-6 -14 -5 -15 5 -6 7 7 10 15 7 18 -3 3 -9 -2 -12 -12z"/>
<path d="M3591 787 c-13 -21 -12 -21 5 -5 10 10 16 20 13 22 -3 3 -11 -5 -18
-17z"/>
<path d="M3753 792 c2 -12 6 -24 10 -28 3 -4 4 4 2 16 -6 30 -16 40 -12 12z"/>
<path d="M3810 801 c0 -6 4 -13 10 -16 6 -3 7 1 4 9 -7 18 -14 21 -14 7z"/>
<path d="M3950 802 c0 -5 7 -9 15 -9 8 0 12 4 9 9 -3 4 -9 8 -15 8 -5 0 -9 -4
-9 -8z"/>
<path d="M4346 800 c6 -8 10 -27 9 -43 -1 -15 1 -25 4 -22 12 13 7 56 -8 68
-14 10 -14 10 -5 -3z"/>
<path d="M4400 805 c0 -2 6 -8 13 -14 10 -8 14 -7 14 2 0 8 -6 14 -14 14 -7 0
-13 -1 -13 -2z"/>
<path d="M4474 786 c1 -8 5 -18 8 -22 4 -3 5 1 4 10 -1 8 -5 18 -8 22 -4 3 -5
-1 -4 -10z"/>
<path d="M2636 773 c-6 -14 -5 -15 5 -6 7 7 10 15 7 18 -3 3 -9 -2 -12 -12z"/>
<path d="M2770 779 c0 -5 5 -7 10 -4 6 3 10 8 10 11 0 2 -4 4 -10 4 -5 0 -10
-5 -10 -11z"/>
<path d="M2816 782 c-3 -5 1 -9 9 -9 8 0 12 4 9 9 -3 4 -7 8 -9 8 -2 0 -6 -4
-9 -8z"/>
<path d="M2855 780 c3 -5 8 -10 11 -10 2 0 4 5 4 10 0 6 -5 10 -11 10 -5 0 -7
-4 -4 -10z"/>
<path d="M3026 778 c3 -5 10 -6 15 -3 13 9 11 12 -6 12 -8 0 -12 -4 -9 -9z"/>
<path d="M3184 782 c4 -3 14 -7 22 -8 9 -1 13 0 10 4 -4 3 -14 7 -22 8 -9 1
-13 0 -10 -4z"/>
<path d="M3660 786 c0 -2 8 -10 18 -17 15 -13 16 -12 3 4 -13 16 -21 21 -21
13z"/>
<path d="M3791 773 c7 -12 15 -20 18 -17 3 2 -3 12 -13 22 -17 16 -18 16 -5
-5z"/>
<path d="M3875 782 c3 -3 -1 -12 -7 -21 -8 -10 -4 -9 10 3 26 23 26 23 7 23
-8 0 -13 -3 -10 -5z"/>
<path d="M4035 782 c3 -3 -1 -12 -7 -21 -8 -10 -4 -9 10 3 26 23 26 23 7 23
-8 0 -13 -3 -10 -5z"/>
<path d="M4260 786 c0 -2 8 -10 18 -17 15 -13 16 -12 3 4 -13 16 -21 21 -21
13z"/>
<path d="M4380 786 c0 -2 8 -10 18 -17 15 -13 16 -12 3 4 -13 16 -21 21 -21
13z"/>
<path d="M4876 778 c3 -5 10 -6 15 -3 13 9 11 12 -6 12 -8 0 -12 -4 -9 -9z"/>
<path d="M5295 780 c-3 -5 -1 -10 4 -10 6 0 11 5 11 10 0 6 -2 10 -4 10 -3 0
-8 -4 -11 -10z"/>
<path d="M5414 776 c1 -8 5 -18 8 -22 4 -3 5 1 4 10 -1 8 -5 18 -8 22 -4 3 -5
-1 -4 -10z"/>
<path d="M5475 781 c-3 -5 -2 -12 3 -15 5 -3 9 1 9 9 0 17 -3 19 -12 6z"/>
<path d="M3945 760 c10 -11 20 -20 23 -20 3 0 -3 9 -13 20 -10 11 -20 20 -23
20 -3 0 3 -9 13 -20z"/>
<path d="M4105 760 c10 -11 20 -20 23 -20 3 0 -3 9 -13 20 -10 11 -20 20 -23
20 -3 0 3 -9 13 -20z"/>
<path d="M4209 763 c-13 -16 -12 -17 4 -4 9 7 17 15 17 17 0 8 -8 3 -21 -13z"/>
<path d="M4504 758 l-19 -23 23 19 c21 18 27 26 19 26 -2 0 -12 -10 -23 -22z"/>
<path d="M3135 760 c3 -5 8 -10 11 -10 2 0 4 5 4 10 0 6 -5 10 -11 10 -5 0 -7
-4 -4 -10z"/>
<path d="M3435 760 c3 -5 8 -10 11 -10 2 0 4 5 4 10 0 6 -5 10 -11 10 -5 0 -7
-4 -4 -10z"/>
<path d="M3635 761 c-3 -5 -2 -12 3 -15 5 -3 9 1 9 9 0 17 -3 19 -12 6z"/>
<path d="M3899 753 c-13 -16 -12 -17 4 -4 16 13 21 21 13 21 -2 0 -10 -8 -17
-17z"/>
<path d="M4059 753 c-13 -16 -12 -17 4 -4 16 13 21 21 13 21 -2 0 -10 -8 -17
-17z"/>
<path d="M4536 762 c-3 -5 1 -9 9 -9 8 0 12 4 9 9 -3 4 -7 8 -9 8 -2 0 -6 -4
-9 -8z"/>
<path d="M5060 766 c0 -2 8 -10 18 -17 15 -13 16 -12 3 4 -13 16 -21 21 -21
13z"/>
<path d="M3253 745 c0 -8 4 -12 9 -9 5 3 6 10 3 15 -9 13 -12 11 -12 -6z"/>
<path d="M4234 746 c1 -8 5 -18 8 -22 4 -3 5 1 4 10 -1 8 -5 18 -8 22 -4 3 -5
-1 -4 -10z"/>
<path d="M5190 757 c0 -2 6 -10 14 -16 11 -9 16 -9 22 1 4 7 4 10 -1 6 -4 -4
-14 -3 -22 3 -7 6 -13 9 -13 6z"/>
<path d="M2853 729 c-2 -23 3 -25 10 -4 4 8 3 16 -1 19 -4 3 -9 -4 -9 -15z"/>
<path d="M2945 740 c-3 -6 1 -7 9 -4 18 7 21 14 7 14 -6 0 -13 -4 -16 -10z"/>
<path d="M3015 740 c3 -5 8 -10 11 -10 2 0 4 5 4 10 0 6 -5 10 -11 10 -5 0 -7
-4 -4 -10z"/>
<path d="M4935 740 c3 -5 8 -10 11 -10 2 0 4 5 4 10 0 6 -5 10 -11 10 -5 0 -7
-4 -4 -10z"/>
<path d="M5114 742 c4 -3 14 -7 22 -8 9 -1 13 0 10 4 -4 3 -14 7 -22 8 -9 1
-13 0 -10 -4z"/>
<path d="M2553 725 c0 -8 4 -12 9 -9 5 3 6 10 3 15 -9 13 -12 11 -12 -6z"/>
<path d="M5313 725 c0 -8 4 -12 9 -9 5 3 6 10 3 15 -9 13 -12 11 -12 -6z"/>
<path d="M3174 716 c1 -8 5 -18 8 -22 4 -3 5 1 4 10 -1 8 -5 18 -8 22 -4 3 -5
-1 -4 -10z"/>
<path d="M4105 719 c-3 -4 2 -6 10 -5 21 3 28 13 10 13 -9 0 -18 -4 -20 -8z"/>
<path d="M4556 718 c3 -5 10 -6 15 -3 13 9 11 12 -6 12 -8 0 -12 -4 -9 -9z"/>
<path d="M4620 726 c0 -2 8 -10 18 -17 15 -13 16 -12 3 4 -13 16 -21 21 -21
13z"/>
<path d="M5636 722 c-3 -5 1 -9 9 -9 8 0 12 4 9 9 -3 4 -7 8 -9 8 -2 0 -6 -4
-9 -8z"/>
<path d="M4933 705 c0 -8 4 -12 9 -9 5 3 6 10 3 15 -9 13 -12 11 -12 -6z"/>
<path d="M3206 702 c-3 -5 1 -9 9 -9 8 0 12 4 9 9 -3 4 -7 8 -9 8 -2 0 -6 -4
-9 -8z"/>
<path d="M3290 699 c0 -5 5 -7 10 -4 6 3 10 8 10 11 0 2 -4 4 -10 4 -5 0 -10
-5 -10 -11z"/>
<path d="M3855 700 c3 -5 8 -10 11 -10 2 0 4 5 4 10 0 6 -5 10 -11 10 -5 0 -7
-4 -4 -10z"/>
<path d="M4010 699 c0 -5 5 -7 10 -4 6 3 10 8 10 11 0 2 -4 4 -10 4 -5 0 -10
-5 -10 -11z"/>
<path d="M4695 700 c3 -5 8 -10 11 -10 2 0 4 5 4 10 0 6 -5 10 -11 10 -5 0 -7
-4 -4 -10z"/>
<path d="M4730 700 c0 -5 5 -10 11 -10 5 0 7 5 4 10 -3 6 -8 10 -11 10 -2 0
-4 -4 -4 -10z"/>
<path d="M4815 700 c3 -5 8 -10 11 -10 2 0 4 5 4 10 0 6 -5 10 -11 10 -5 0 -7
-4 -4 -10z"/>
<path d="M5155 701 c-3 -5 -2 -12 3 -15 5 -3 9 1 9 9 0 17 -3 19 -12 6z"/>
<path d="M2990 696 c0 -2 8 -10 18 -17 15 -13 16 -12 3 4 -13 16 -21 21 -21
13z"/>
<path d="M4874 686 c1 -8 5 -18 8 -22 4 -3 5 1 4 10 -1 8 -5 18 -8 22 -4 3 -5
-1 -4 -10z"/>
<path d="M2350 686 c0 -2 7 -7 16 -10 8 -3 12 -2 9 4 -6 10 -25 14 -25 6z"/>
<path d="M3694 676 c1 -8 5 -18 8 -22 4 -3 5 1 4 10 -1 8 -5 18 -8 22 -4 3 -5
-1 -4 -10z"/>
<path d="M3819 688 c-5 -18 -6 -38 -1 -34 7 8 12 36 6 36 -2 0 -4 -1 -5 -2z"/>
<path d="M4259 688 c-5 -18 -6 -38 -1 -34 7 8 12 36 6 36 -2 0 -4 -1 -5 -2z"/>
<path d="M4770 680 c0 -5 5 -10 11 -10 5 0 7 5 4 10 -3 6 -8 10 -11 10 -2 0
-4 -4 -4 -10z"/>
<path d="M4213 665 c0 -8 4 -12 9 -9 5 3 6 10 3 15 -9 13 -12 11 -12 -6z"/>
<path d="M3656 662 c-3 -5 1 -9 9 -9 8 0 12 4 9 9 -3 4 -7 8 -9 8 -2 0 -6 -4
-9 -8z"/>
<path d="M3890 659 c0 -5 5 -7 10 -4 6 3 10 8 10 11 0 2 -4 4 -10 4 -5 0 -10
-5 -10 -11z"/>
<path d="M4035 659 c-3 -4 2 -6 10 -5 21 3 28 13 10 13 -9 0 -18 -4 -20 -8z"/>
<path d="M4435 659 c-3 -4 2 -6 10 -5 21 3 28 13 10 13 -9 0 -18 -4 -20 -8z"/>
<path d="M3190 656 c0 -2 8 -10 18 -17 15 -13 16 -12 3 4 -13 16 -21 21 -21
13z"/>
<path d="M3750 646 c0 -2 7 -7 16 -10 8 -3 12 -2 9 4 -6 10 -25 14 -25 6z"/>
<path d="M5073 605 c0 -8 4 -12 9 -9 5 3 6 10 3 15 -9 13 -12 11 -12 -6z"/>
<path d="M3790 576 c0 -2 8 -10 18 -17 15 -13 16 -12 3 4 -13 16 -21 21 -21
13z"/>
<path d="M4719 553 c-13 -16 -12 -17 4 -4 16 13 21 21 13 21 -2 0 -10 -8 -17
-17z"/>
</g>
</svg>
